<svg xmlns="http://www.w3.org/2000/svg" width="1600" height="1268" viewBox="0 0 1600 1268" role="img" aria-label="Odylith benchmark frontier"><title>Odylith benchmark frontier</title><rect x="0" y="0" width="1600" height="1268" rx="24" fill="#f6f1e7"/>
    <style>
      text { fill: #17202a; font-family: ui-sans-serif, system-ui, -apple-system, BlinkMacSystemFont, "Segoe UI", sans-serif; }
      .title { font-size: 30px; font-weight: 700; }
      .subtitle { font-size: 15px; fill: #5f6b76; }
      .axis { font-size: 14px; fill: #5f6b76; }
      .label { font-size: 13px; fill: #5f6b76; }
      .small { font-size: 12px; fill: #5f6b76; }
      .chip { font-size: 12px; font-weight: 700; }
      .value { font-size: 16px; font-weight: 700; }
      .cell { font-size: 12px; font-weight: 700; text-anchor: middle; dominant-baseline: middle; }
    </style>
    <rect x="44" y="40" width="1512" height="1188" rx="28" fill="#fffdfa" stroke="#d8cfbd" stroke-width="1.5"/><text x="86" y="86" class="title">Grounding Benchmark: packet/prompt time vs prompt-bundle input</text><text x="86" y="112" class="subtitle">The main field is zoomed to the dense scenario cluster so long-tail cases do not flatten the rest. Left and down</text><text x="86" y="130" class="subtitle">is better for prompt-bundle input and packet time.</text><text x="86" y="156" class="small">Static chart: Focus window | 37 of 37 scenarios in frame</text><text x="420" y="156" class="small" fill="#1d7f63">| all scenarios fit in frame</text><rect x="86" y="190" width="944" height="898" rx="24" fill="#faf7ef" stroke="#d8cfbd" stroke-width="1"/><line x1="86.00" y1="190" x2="86.00" y2="1088" stroke="#d8cfbd" stroke-width="1" opacity="0.8"/><text x="86.00" y="1114" class="axis" text-anchor="middle">0</text><line x1="220.86" y1="190" x2="220.86" y2="1088" stroke="#d8cfbd" stroke-width="1" opacity="0.8"/><text x="220.86" y="1114" class="axis" text-anchor="middle">29</text><line x1="355.71" y1="190" x2="355.71" y2="1088" stroke="#d8cfbd" stroke-width="1" opacity="0.8"/><text x="355.71" y="1114" class="axis" text-anchor="middle">57</text><line x1="490.57" y1="190" x2="490.57" y2="1088" stroke="#d8cfbd" stroke-width="1" opacity="0.8"/><text x="490.57" y="1114" class="axis" text-anchor="middle">86</text><line x1="625.43" y1="190" x2="625.43" y2="1088" stroke="#d8cfbd" stroke-width="1" opacity="0.8"/><text x="625.43" y="1114" class="axis" text-anchor="middle">114</text><line x1="760.29" y1="190" x2="760.29" y2="1088" stroke="#d8cfbd" stroke-width="1" opacity="0.8"/><text x="760.29" y="1114" class="axis" text-anchor="middle">143</text><line x1="895.14" y1="190" x2="895.14" y2="1088" stroke="#d8cfbd" stroke-width="1" opacity="0.8"/><text x="895.14" y="1114" class="axis" text-anchor="middle">171</text><line x1="1030.00" y1="190" x2="1030.00" y2="1088" stroke="#d8cfbd" stroke-width="1" opacity="0.8"/><text x="1030.00" y="1114" class="axis" text-anchor="middle">200</text><line x1="86" y1="1088.00" x2="1030" y2="1088.00" stroke="#d8cfbd" stroke-width="1" opacity="0.8"/><text x="68" y="1092.00" class="axis" text-anchor="end">0</text><line x1="86" y1="938.33" x2="1030" y2="938.33" stroke="#d8cfbd" stroke-width="1" opacity="0.8"/><text x="68" y="942.33" class="axis" text-anchor="end">2</text><line x1="86" y1="788.67" x2="1030" y2="788.67" stroke="#d8cfbd" stroke-width="1" opacity="0.8"/><text x="68" y="792.67" class="axis" text-anchor="end">3</text><line x1="86" y1="639.00" x2="1030" y2="639.00" stroke="#d8cfbd" stroke-width="1" opacity="0.8"/><text x="68" y="643.00" class="axis" text-anchor="end">5</text><line x1="86" y1="489.33" x2="1030" y2="489.33" stroke="#d8cfbd" stroke-width="1" opacity="0.8"/><text x="68" y="493.33" class="axis" text-anchor="end">7</text><line x1="86" y1="339.67" x2="1030" y2="339.67" stroke="#d8cfbd" stroke-width="1" opacity="0.8"/><text x="68" y="343.67" class="axis" text-anchor="end">8</text><line x1="86" y1="190.00" x2="1030" y2="190.00" stroke="#d8cfbd" stroke-width="1" opacity="0.8"/><text x="68" y="194.00" class="axis" text-anchor="end">10</text><line x1="86" y1="1088" x2="1030" y2="1088" stroke="#17202a" stroke-width="2"/><line x1="86" y1="190" x2="86" y2="1088" stroke="#17202a" stroke-width="2"/><text x="558.00" y="1142" class="label" text-anchor="middle">Prompt-bundle input tokens</text><text x="28" y="639.00" class="label" text-anchor="middle" transform="rotate(-90 28 639.00)">Packet time (ms)</text><text x="86" y="1166" class="small">Main field caps at 200 prompt-bundle input tokens and 10 ms to keep the dense cluster legible.</text><line x1="520.24" y1="190" x2="520.24" y2="1088" stroke="#b64035" stroke-width="1.8" stroke-dasharray="7 6" opacity="0.8"/><line x1="742.08" y1="190" x2="742.08" y2="1088" stroke="#007f8c" stroke-width="1.8" stroke-dasharray="7 6" opacity="0.8"/><line x1="86" y1="1087.73" x2="1030" y2="1087.73" stroke="#b64035" stroke-width="1.8" stroke-dasharray="7 6" opacity="0.8"/><line x1="86" y1="455.09" x2="1030" y2="455.09" stroke="#007f8c" stroke-width="1.8" stroke-dasharray="7 6" opacity="0.8"/><line x1="638.24" y1="1087.55" x2="784.56" y2="290.67" stroke="#b42318" stroke-width="2.4" opacity="0.68"/><circle cx="638.24" cy="1087.55" r="5.3" fill="#b64035" stroke="#fffdfa" stroke-width="1.4"/><polygon points="784.56,284.47 790.76,290.67 784.56,296.87 778.36,290.67" fill="#007f8c" stroke="#fffdfa" stroke-width="1.4"/><line x1="605.20" y1="1087.64" x2="841.20" y2="270.46" stroke="#b42318" stroke-width="2.4" opacity="0.68"/><circle cx="605.20" cy="1087.64" r="5.3" fill="#b64035" stroke="#fffdfa" stroke-width="1.4"/><polygon points="841.20,264.26 847.40,270.46 841.20,276.66 835.00,270.46" fill="#007f8c" stroke="#fffdfa" stroke-width="1.4"/><line x1="430.56" y1="1087.55" x2="727.92" y2="537.62" stroke="#b42318" stroke-width="2.4" opacity="0.68"/><circle cx="430.56" cy="1087.55" r="5.3" fill="#b64035" stroke="#fffdfa" stroke-width="1.4"/><polygon points="727.92,531.42 734.12,537.62 727.92,543.82 721.72,537.62" fill="#007f8c" stroke="#fffdfa" stroke-width="1.4"/><line x1="628.80" y1="1087.64" x2="808.16" y2="446.29" stroke="#b42318" stroke-width="2.4" opacity="0.68"/><circle cx="628.80" cy="1087.64" r="5.3" fill="#b64035" stroke="#fffdfa" stroke-width="1.4"/><polygon points="808.16,440.09 814.36,446.29 808.16,452.49 801.96,446.29" fill="#007f8c" stroke="#fffdfa" stroke-width="1.4"/><line x1="595.76" y1="1087.73" x2="770.40" y2="622.39" stroke="#b42318" stroke-width="2.4" opacity="0.68"/><circle cx="595.76" cy="1087.73" r="5.3" fill="#b64035" stroke="#fffdfa" stroke-width="1.4"/><polygon points="770.40,616.19 776.60,622.39 770.40,628.59 764.20,622.39" fill="#007f8c" stroke="#fffdfa" stroke-width="1.4"/><line x1="647.68" y1="1087.73" x2="893.12" y2="573.00" stroke="#b42318" stroke-width="2.4" opacity="0.68"/><circle cx="647.68" cy="1087.73" r="5.3" fill="#b64035" stroke="#fffdfa" stroke-width="1.4"/><polygon points="893.12,566.80 899.32,573.00 893.12,579.20 886.92,573.00" fill="#007f8c" stroke="#fffdfa" stroke-width="1.4"/><line x1="581.60" y1="1087.46" x2="727.92" y2="559.62" stroke="#b42318" stroke-width="2.4" opacity="0.68"/><circle cx="581.60" cy="1087.46" r="5.3" fill="#b64035" stroke="#fffdfa" stroke-width="1.4"/><polygon points="727.92,553.42 734.12,559.62 727.92,565.82 721.72,559.62" fill="#007f8c" stroke="#fffdfa" stroke-width="1.4"/><line x1="638.24" y1="1087.82" x2="850.64" y2="611.25" stroke="#b42318" stroke-width="2.4" opacity="0.68"/><circle cx="638.24" cy="1087.82" r="5.3" fill="#b64035" stroke="#fffdfa" stroke-width="1.4"/><polygon points="850.64,605.05 856.84,611.25 850.64,617.45 844.44,611.25" fill="#007f8c" stroke="#fffdfa" stroke-width="1.4"/><line x1="671.28" y1="1087.82" x2="954.48" y2="649.24" stroke="#b42318" stroke-width="2.4" opacity="0.68"/><circle cx="671.28" cy="1087.82" r="5.3" fill="#b64035" stroke="#fffdfa" stroke-width="1.4"/><polygon points="954.48,643.04 960.68,649.24 954.48,655.44 948.28,649.24" fill="#007f8c" stroke="#fffdfa" stroke-width="1.4"/><line x1="487.20" y1="1087.73" x2="789.28" y2="516.24" stroke="#b42318" stroke-width="2.4" opacity="0.68"/><circle cx="487.20" cy="1087.73" r="5.3" fill="#b64035" stroke="#fffdfa" stroke-width="1.4"/><polygon points="789.28,510.04 795.48,516.24 789.28,522.44 783.08,516.24" fill="#007f8c" stroke="#fffdfa" stroke-width="1.4"/><line x1="506.08" y1="1087.82" x2="619.36" y2="227.81" stroke="#b42318" stroke-width="2.4" opacity="0.68"/><circle cx="506.08" cy="1087.82" r="5.3" fill="#b64035" stroke="#fffdfa" stroke-width="1.4"/><polygon points="619.36,221.61 625.56,227.81 619.36,234.01 613.16,227.81" fill="#007f8c" stroke="#fffdfa" stroke-width="1.4"/><line x1="520.24" y1="1087.82" x2="751.52" y2="316.26" stroke="#b42318" stroke-width="2.4" opacity="0.68"/><circle cx="520.24" cy="1087.82" r="5.3" fill="#b64035" stroke="#fffdfa" stroke-width="1.4"/><polygon points="751.52,310.06 757.72,316.26 751.52,322.46 745.32,316.26" fill="#007f8c" stroke="#fffdfa" stroke-width="1.4"/><line x1="605.20" y1="1087.73" x2="874.24" y2="201.40" stroke="#b42318" stroke-width="2.4" opacity="0.68"/><circle cx="605.20" cy="1087.73" r="5.3" fill="#b64035" stroke="#fffdfa" stroke-width="1.4"/><polygon points="874.24,195.20 880.44,201.40 874.24,207.60 868.04,201.40" fill="#007f8c" stroke="#fffdfa" stroke-width="1.4"/><line x1="496.64" y1="1087.73" x2="628.80" y2="351.55" stroke="#b42318" stroke-width="2.4" opacity="0.68"/><circle cx="496.64" cy="1087.73" r="5.3" fill="#b64035" stroke="#fffdfa" stroke-width="1.4"/><polygon points="628.80,345.35 635.00,351.55 628.80,357.75 622.60,351.55" fill="#007f8c" stroke="#fffdfa" stroke-width="1.4"/><line x1="468.32" y1="1087.73" x2="609.92" y2="368.70" stroke="#b42318" stroke-width="2.4" opacity="0.68"/><circle cx="468.32" cy="1087.73" r="5.3" fill="#b64035" stroke="#fffdfa" stroke-width="1.4"/><polygon points="609.92,362.50 616.12,368.70 609.92,374.90 603.72,368.70" fill="#007f8c" stroke="#fffdfa" stroke-width="1.4"/><line x1="548.56" y1="1087.73" x2="883.68" y2="622.57" stroke="#b42318" stroke-width="2.4" opacity="0.68"/><circle cx="548.56" cy="1087.73" r="5.3" fill="#b64035" stroke="#fffdfa" stroke-width="1.4"/><polygon points="883.68,616.37 889.88,622.57 883.68,628.77 877.48,622.57" fill="#007f8c" stroke="#fffdfa" stroke-width="1.4"/><line x1="402.24" y1="1087.73" x2="553.28" y2="455.09" stroke="#b42318" stroke-width="2.4" opacity="0.68"/><circle cx="402.24" cy="1087.73" r="5.3" fill="#b64035" stroke="#fffdfa" stroke-width="1.4"/><polygon points="553.28,448.89 559.48,455.09 553.28,461.29 547.08,455.09" fill="#007f8c" stroke="#fffdfa" stroke-width="1.4"/><line x1="628.80" y1="1087.73" x2="775.12" y2="626.52" stroke="#b42318" stroke-width="2.4" opacity="0.68"/><circle cx="628.80" cy="1087.73" r="5.3" fill="#b64035" stroke="#fffdfa" stroke-width="1.4"/><polygon points="775.12,620.32 781.32,626.52 775.12,632.72 768.92,626.52" fill="#007f8c" stroke="#fffdfa" stroke-width="1.4"/><line x1="468.32" y1="1087.82" x2="600.48" y2="371.40" stroke="#b42318" stroke-width="2.4" opacity="0.68"/><circle cx="468.32" cy="1087.82" r="5.3" fill="#b64035" stroke="#fffdfa" stroke-width="1.4"/><polygon points="600.48,365.20 606.68,371.40 600.48,377.60 594.28,371.40" fill="#007f8c" stroke="#fffdfa" stroke-width="1.4"/><line x1="487.20" y1="1087.82" x2="614.64" y2="373.91" stroke="#b42318" stroke-width="2.4" opacity="0.68"/><circle cx="487.20" cy="1087.82" r="5.3" fill="#b64035" stroke="#fffdfa" stroke-width="1.4"/><polygon points="614.64,367.71 620.84,373.91 614.64,380.11 608.44,373.91" fill="#007f8c" stroke="#fffdfa" stroke-width="1.4"/><line x1="558.00" y1="1087.64" x2="775.12" y2="244.42" stroke="#b42318" stroke-width="2.4" opacity="0.68"/><circle cx="558.00" cy="1087.64" r="5.3" fill="#b64035" stroke="#fffdfa" stroke-width="1.4"/><polygon points="775.12,238.22 781.32,244.42 775.12,250.62 768.92,244.42" fill="#007f8c" stroke="#fffdfa" stroke-width="1.4"/><line x1="671.28" y1="1087.73" x2="591.04" y2="607.12" stroke="#b7791f" stroke-width="2.4" opacity="0.68"/><circle cx="671.28" cy="1087.73" r="5.3" fill="#b64035" stroke="#fffdfa" stroke-width="1.4"/><polygon points="591.04,600.92 597.24,607.12 591.04,613.32 584.84,607.12" fill="#007f8c" stroke="#fffdfa" stroke-width="1.4"/><line x1="397.52" y1="1087.19" x2="742.08" y2="192.51" stroke="#b42318" stroke-width="2.4" opacity="0.68"/><circle cx="397.52" cy="1087.19" r="5.3" fill="#b64035" stroke="#fffdfa" stroke-width="1.4"/><polygon points="742.08,186.31 748.28,192.51 742.08,198.71 735.88,192.51" fill="#007f8c" stroke="#fffdfa" stroke-width="1.4"/><line x1="449.44" y1="1087.91" x2="614.64" y2="838.09" stroke="#b42318" stroke-width="2.4" opacity="0.68"/><circle cx="449.44" cy="1087.91" r="5.3" fill="#b64035" stroke="#fffdfa" stroke-width="1.4"/><polygon points="614.64,831.89 620.84,838.09 614.64,844.29 608.44,838.09" fill="#007f8c" stroke="#fffdfa" stroke-width="1.4"/><line x1="435.28" y1="1087.28" x2="704.32" y2="284.83" stroke="#b42318" stroke-width="2.4" opacity="0.68"/><circle cx="435.28" cy="1087.28" r="5.3" fill="#b64035" stroke="#fffdfa" stroke-width="1.4"/><polygon points="704.32,278.63 710.52,284.83 704.32,291.03 698.12,284.83" fill="#007f8c" stroke="#fffdfa" stroke-width="1.4"/><line x1="586.32" y1="1087.82" x2="784.56" y2="197.63" stroke="#b42318" stroke-width="2.4" opacity="0.68"/><circle cx="586.32" cy="1087.82" r="5.3" fill="#b64035" stroke="#fffdfa" stroke-width="1.4"/><polygon points="784.56,191.43 790.76,197.63 784.56,203.83 778.36,197.63" fill="#007f8c" stroke="#fffdfa" stroke-width="1.4"/><line x1="614.64" y1="1087.73" x2="808.16" y2="206.70" stroke="#b42318" stroke-width="2.4" opacity="0.68"/><circle cx="614.64" cy="1087.73" r="5.3" fill="#b64035" stroke="#fffdfa" stroke-width="1.4"/><polygon points="808.16,200.50 814.36,206.70 808.16,212.90 801.96,206.70" fill="#007f8c" stroke="#fffdfa" stroke-width="1.4"/><line x1="473.04" y1="1087.82" x2="600.48" y2="371.49" stroke="#b42318" stroke-width="2.4" opacity="0.68"/><circle cx="473.04" cy="1087.82" r="5.3" fill="#b64035" stroke="#fffdfa" stroke-width="1.4"/><polygon points="600.48,365.29 606.68,371.49 600.48,377.69 594.28,371.49" fill="#007f8c" stroke="#fffdfa" stroke-width="1.4"/><line x1="421.12" y1="1087.73" x2="591.04" y2="686.32" stroke="#b42318" stroke-width="2.4" opacity="0.68"/><circle cx="421.12" cy="1087.73" r="5.3" fill="#b64035" stroke="#fffdfa" stroke-width="1.4"/><polygon points="591.04,680.12 597.24,686.32 591.04,692.52 584.84,686.32" fill="#007f8c" stroke="#fffdfa" stroke-width="1.4"/><line x1="501.36" y1="1087.10" x2="709.04" y2="589.88" stroke="#b42318" stroke-width="2.4" opacity="0.68"/><circle cx="501.36" cy="1087.10" r="5.3" fill="#b64035" stroke="#fffdfa" stroke-width="1.4"/><polygon points="709.04,583.68 715.24,589.88 709.04,596.08 702.84,589.88" fill="#007f8c" stroke="#fffdfa" stroke-width="1.4"/><line x1="605.20" y1="1088.00" x2="822.32" y2="664.23" stroke="#b42318" stroke-width="2.4" opacity="0.68"/><circle cx="605.20" cy="1088.00" r="5.3" fill="#b64035" stroke="#fffdfa" stroke-width="1.4"/><polygon points="822.32,658.03 828.52,664.23 822.32,670.43 816.12,664.23" fill="#007f8c" stroke="#fffdfa" stroke-width="1.4"/><line x1="595.76" y1="1088.00" x2="775.12" y2="695.75" stroke="#b42318" stroke-width="2.4" opacity="0.68"/><circle cx="595.76" cy="1088.00" r="5.3" fill="#b64035" stroke="#fffdfa" stroke-width="1.4"/><polygon points="775.12,689.55 781.32,695.75 775.12,701.95 768.92,695.75" fill="#007f8c" stroke="#fffdfa" stroke-width="1.4"/><line x1="458.88" y1="1088.00" x2="515.52" y2="789.95" stroke="#b42318" stroke-width="2.4" opacity="0.68"/><circle cx="458.88" cy="1088.00" r="5.3" fill="#b64035" stroke="#fffdfa" stroke-width="1.4"/><polygon points="515.52,783.75 521.72,789.95 515.52,796.15 509.32,789.95" fill="#007f8c" stroke="#fffdfa" stroke-width="1.4"/><line x1="487.20" y1="1088.00" x2="789.28" y2="688.21" stroke="#b42318" stroke-width="2.4" opacity="0.68"/><circle cx="487.20" cy="1088.00" r="5.3" fill="#b64035" stroke="#fffdfa" stroke-width="1.4"/><polygon points="789.28,682.01 795.48,688.21 789.28,694.41 783.08,688.21" fill="#007f8c" stroke="#fffdfa" stroke-width="1.4"/><line x1="454.16" y1="1087.82" x2="666.56" y2="418.54" stroke="#b42318" stroke-width="2.4" opacity="0.68"/><circle cx="454.16" cy="1087.82" r="5.3" fill="#b64035" stroke="#fffdfa" stroke-width="1.4"/><polygon points="666.56,412.34 672.76,418.54 666.56,424.74 660.36,418.54" fill="#007f8c" stroke="#fffdfa" stroke-width="1.4"/><line x1="628.80" y1="1087.73" x2="718.48" y2="568.42" stroke="#b42318" stroke-width="2.4" opacity="0.68"/><circle cx="628.80" cy="1087.73" r="5.3" fill="#b64035" stroke="#fffdfa" stroke-width="1.4"/><polygon points="718.48,562.22 724.68,568.42 718.48,574.62 712.28,568.42" fill="#007f8c" stroke="#fffdfa" stroke-width="1.4"/><line x1="487.20" y1="1087.82" x2="614.64" y2="391.06" stroke="#b42318" stroke-width="2.4" opacity="0.68"/><circle cx="487.20" cy="1087.82" r="5.3" fill="#b64035" stroke="#fffdfa" stroke-width="1.4"/><polygon points="614.64,384.86 620.84,391.06 614.64,397.26 608.44,391.06" fill="#007f8c" stroke="#fffdfa" stroke-width="1.4"/><rect x="1060" y="190" width="436" height="230" rx="22" fill="#f6f1e7" stroke="#d8cfbd" stroke-width="1"/><text x="1088" y="224" class="value">Median tradeoff</text><line x1="1084" y1="244" x2="1472" y2="244" stroke="#d8cfbd" stroke-width="1"/><text x="1088" y="274" class="small">Prompt-bundle input</text><text x="1088" y="312" class="value" fill="#b42318">+47</text><text x="1464" y="312" class="small" text-anchor="end">off 92 -&gt; on 139</text><line x1="1084" y1="330" x2="1472" y2="330" stroke="#d8cfbd" stroke-width="1"/><text x="1088" y="360" class="small">Packet time</text><text x="1088" y="398" class="value" fill="#b42318">+7.045 ms</text><text x="1464" y="398" class="small" text-anchor="end">off 0.003 ms -&gt; on 7.048 ms</text><rect x="1060" y="438" width="436" height="176" rx="22" fill="#f6f1e7" stroke="#d8cfbd" stroke-width="1"/><text x="1088" y="468" class="value">How to read</text><text x="1088" y="496" class="label">Each line links the same benchmark</text><text x="1088" y="516" class="label">scenario in both modes.</text><text x="1088" y="536" class="label">Read left/down as better.</text><text x="1088" y="556" class="label">The main field caps at 200 tokens and</text><text x="1088" y="576" class="label">10 ms.</text><rect x="1060" y="632" width="436" height="114" rx="22" fill="#f6f1e7" stroke="#d8cfbd" stroke-width="1"/><text x="1088" y="662" class="value">Long-tail spotlight</text><text x="1088" y="686" class="label">No scenarios spill past the focus</text><text x="1088" y="706" class="label">window.</text><rect x="1060" y="764" width="436" height="310" rx="22" fill="#f6f1e7" stroke="#d8cfbd" stroke-width="1"/><text x="1088" y="796" class="value">Marks and signals</text><circle cx="1098" cy="820" r="5.5" fill="#b64035"/><text x="1116" y="825" class="small">odylith_off / raw Codex CLI</text><polygon points="1098.00,837.80 1104.20,844.00 1098.00,850.20 1091.80,844.00" fill="#007f8c"/><text x="1116" y="849" class="small">Odylith on</text><line x1="1092" y1="868" x2="1110" y2="868" stroke="#17202a" stroke-width="2.3"/><text x="1116" y="873" class="small">One connecting line = one</text><text x="1116" y="891" class="small">scenario across both modes</text><line x1="1092" y1="910" x2="1110" y2="910" stroke="#1d7f63" stroke-width="2.5"/><text x="1116" y="915" class="small">Odylith on wins on both packet</text><text x="1116" y="933" class="small">time and prompt-bundle input</text><line x1="1092" y1="952" x2="1110" y2="952" stroke="#b7791f" stroke-width="2.5"/><text x="1116" y="957" class="small">Split tradeoff: one improves</text><text x="1116" y="975" class="small">while the other worsens</text><line x1="1092" y1="994" x2="1110" y2="994" stroke="#b42318" stroke-width="2.5"/><text x="1116" y="999" class="small">odylith_off / raw Codex CLI wins</text><text x="1116" y="1017" class="small">on both packet time and</text><text x="1116" y="1035" class="small">prompt-bundle input</text><text x="1088" y="1116" class="small">Report 74cbe36427f2c375 |</text><text x="1088" y="1132" class="small">2026-04-05T02:47:27Z | 37 scenarios |</text><text x="1088" y="1148" class="small">Grounding Benchmark | single_profile (warm)</text><text x="1088" y="1164" class="small">Visual pair: odylith_on vs raw_agent_baseline</text><text x="1088" y="1180" class="small">Source: latest-diagnostic.v1.json</text></svg>