<svg xmlns="http://www.w3.org/2000/svg" width="1600" height="1348" viewBox="0 0 1600 1348" role="img" aria-label="Odylith benchmark quality frontier"><title>Odylith benchmark quality frontier</title><rect x="0" y="0" width="1600" height="1348" rx="24" fill="#f6f1e7"/>
    <style>
      text { fill: #17202a; font-family: ui-sans-serif, system-ui, -apple-system, BlinkMacSystemFont, "Segoe UI", sans-serif; }
      .title { font-size: 30px; font-weight: 700; }
      .subtitle { font-size: 15px; fill: #5f6b76; }
      .label { font-size: 14px; fill: #5f6b76; }
      .small { font-size: 12px; fill: #5f6b76; }
      .value { font-size: 20px; font-weight: 700; }
      .metric { font-size: 24px; font-weight: 700; }
      .chip { font-size: 12px; font-weight: 700; }
    </style>
    <rect x="44" y="40" width="1512" height="1268" rx="28" fill="#fffdfa" stroke="#d8cfbd" stroke-width="1.5"/><text x="86" y="86" class="title">Grounding Benchmark Quality Frontier: grounding recall vs packet time</text><text x="86" y="112" class="subtitle">Each line connects the same benchmark scenario with Odylith off (red) and Odylith on (teal). Right is better and</text><text x="86" y="130" class="subtitle">lower packet time is better.</text><text x="86" y="156" class="small">Static chart: full recall range | all 37 published scenarios in frame</text><text x="478" y="156" class="small" fill="#1d7f63">| all 60 points stay naturally visible on observed paired-time spread</text><rect x="86" y="190" width="944" height="978" rx="24" fill="#faf7ef" stroke="#d8cfbd" stroke-width="1"/><line x1="86.00" y1="190" x2="86.00" y2="1168" stroke="#d8cfbd" stroke-width="1" opacity="0.8"/><text x="86.00" y="1194" class="axis" text-anchor="middle">0.00</text><line x1="322.00" y1="190" x2="322.00" y2="1168" stroke="#d8cfbd" stroke-width="1" opacity="0.8"/><text x="322.00" y="1194" class="axis" text-anchor="middle">0.25</text><line x1="558.00" y1="190" x2="558.00" y2="1168" stroke="#d8cfbd" stroke-width="1" opacity="0.8"/><text x="558.00" y="1194" class="axis" text-anchor="middle">0.50</text><line x1="794.00" y1="190" x2="794.00" y2="1168" stroke="#d8cfbd" stroke-width="1" opacity="0.8"/><text x="794.00" y="1194" class="axis" text-anchor="middle">0.75</text><line x1="1030.00" y1="190" x2="1030.00" y2="1168" stroke="#d8cfbd" stroke-width="1" opacity="0.8"/><text x="1030.00" y="1194" class="axis" text-anchor="middle">1.00</text><line x1="86" y1="1168.00" x2="1030" y2="1168.00" stroke="#d8cfbd" stroke-width="1" opacity="0.8"/><text x="68" y="1172.00" class="axis" text-anchor="end">0</text><line x1="86" y1="1005.00" x2="1030" y2="1005.00" stroke="#d8cfbd" stroke-width="1" opacity="0.8"/><text x="68" y="1009.00" class="axis" text-anchor="end">2</text><line x1="86" y1="842.00" x2="1030" y2="842.00" stroke="#d8cfbd" stroke-width="1" opacity="0.8"/><text x="68" y="846.00" class="axis" text-anchor="end">3</text><line x1="86" y1="679.00" x2="1030" y2="679.00" stroke="#d8cfbd" stroke-width="1" opacity="0.8"/><text x="68" y="683.00" class="axis" text-anchor="end">5</text><line x1="86" y1="516.00" x2="1030" y2="516.00" stroke="#d8cfbd" stroke-width="1" opacity="0.8"/><text x="68" y="520.00" class="axis" text-anchor="end">7</text><line x1="86" y1="353.00" x2="1030" y2="353.00" stroke="#d8cfbd" stroke-width="1" opacity="0.8"/><text x="68" y="357.00" class="axis" text-anchor="end">8</text><line x1="86" y1="190.00" x2="1030" y2="190.00" stroke="#d8cfbd" stroke-width="1" opacity="0.8"/><text x="68" y="194.00" class="axis" text-anchor="end">10</text><line x1="86" y1="1168" x2="1030" y2="1168" stroke="#17202a" stroke-width="2"/><line x1="86" y1="190" x2="86" y2="1168" stroke="#17202a" stroke-width="2"/><text x="558.00" y="1222" class="label" text-anchor="middle">Grounding recall</text><text x="28" y="679.00" class="label" text-anchor="middle" transform="rotate(-90 28 679.00)">Packet time (ms)</text><text x="86" y="1246" class="small">All published scenario pairs stay in frame without synthetic spreading because packet time provides natural point separation.</text><line x1="558.00" y1="190" x2="558.00" y2="1168" stroke="#b64035" stroke-width="1.8" stroke-dasharray="7 6" opacity="0.8"/><line x1="1030.00" y1="190" x2="1030.00" y2="1168" stroke="#007f8c" stroke-width="1.8" stroke-dasharray="7 6" opacity="0.8"/><line x1="86" y1="1167.71" x2="1030" y2="1167.71" stroke="#b64035" stroke-width="1.8" stroke-dasharray="7 6" opacity="0.8"/><line x1="86" y1="478.71" x2="1030" y2="478.71" stroke="#007f8c" stroke-width="1.8" stroke-dasharray="7 6" opacity="0.8"/><line x1="369.20" y1="1167.51" x2="746.80" y2="299.63" stroke="#b7791f" stroke-width="2.4" opacity="0.68"/><circle cx="369.20" cy="1167.51" r="5.3" fill="#b64035" stroke="#fffdfa" stroke-width="1.4"/><polygon points="746.80,293.43 753.00,299.63 746.80,305.83 740.60,299.63" fill="#007f8c" stroke="#fffdfa" stroke-width="1.4"/><line x1="463.60" y1="1167.61" x2="1030.00" y2="277.63" stroke="#b7791f" stroke-width="2.4" opacity="0.68"/><circle cx="463.60" cy="1167.61" r="5.3" fill="#b64035" stroke="#fffdfa" stroke-width="1.4"/><polygon points="1030.00,271.43 1036.20,277.63 1030.00,283.83 1023.80,277.63" fill="#007f8c" stroke="#fffdfa" stroke-width="1.4"/><line x1="86.00" y1="1167.51" x2="1030.00" y2="568.58" stroke="#b7791f" stroke-width="2.4" opacity="0.68"/><circle cx="86.00" cy="1167.51" r="5.3" fill="#b64035" stroke="#fffdfa" stroke-width="1.4"/><polygon points="1030.00,562.38 1036.20,568.58 1030.00,574.78 1023.80,568.58" fill="#007f8c" stroke="#fffdfa" stroke-width="1.4"/><line x1="440.00" y1="1167.61" x2="794.00" y2="469.12" stroke="#b7791f" stroke-width="2.4" opacity="0.68"/><circle cx="440.00" cy="1167.61" r="5.3" fill="#b64035" stroke="#fffdfa" stroke-width="1.4"/><polygon points="794.00,462.92 800.20,469.12 794.00,475.32 787.80,469.12" fill="#007f8c" stroke="#fffdfa" stroke-width="1.4"/><line x1="652.40" y1="1167.71" x2="1030.00" y2="660.91" stroke="#b7791f" stroke-width="2.4" opacity="0.68"/><circle cx="652.40" cy="1167.71" r="5.3" fill="#b64035" stroke="#fffdfa" stroke-width="1.4"/><polygon points="1030.00,654.71 1036.20,660.91 1030.00,667.11 1023.80,660.91" fill="#007f8c" stroke="#fffdfa" stroke-width="1.4"/><line x1="558.00" y1="1167.71" x2="872.35" y2="607.12" stroke="#b7791f" stroke-width="2.4" opacity="0.68"/><circle cx="558.00" cy="1167.71" r="5.3" fill="#b64035" stroke="#fffdfa" stroke-width="1.4"/><polygon points="872.35,600.92 878.55,607.12 872.35,613.32 866.15,607.12" fill="#007f8c" stroke="#fffdfa" stroke-width="1.4"/><line x1="558.00" y1="1167.41" x2="1030.00" y2="592.54" stroke="#b7791f" stroke-width="2.4" opacity="0.68"/><circle cx="558.00" cy="1167.41" r="5.3" fill="#b64035" stroke="#fffdfa" stroke-width="1.4"/><polygon points="1030.00,586.34 1036.20,592.54 1030.00,598.74 1023.80,592.54" fill="#007f8c" stroke="#fffdfa" stroke-width="1.4"/><line x1="558.00" y1="1167.80" x2="1030.00" y2="648.78" stroke="#b7791f" stroke-width="2.4" opacity="0.68"/><circle cx="558.00" cy="1167.80" r="5.3" fill="#b64035" stroke="#fffdfa" stroke-width="1.4"/><polygon points="1030.00,642.58 1036.20,648.78 1030.00,654.98 1023.80,648.78" fill="#007f8c" stroke="#fffdfa" stroke-width="1.4"/><line x1="558.00" y1="1167.80" x2="1030.00" y2="690.15" stroke="#b7791f" stroke-width="2.4" opacity="0.68"/><circle cx="558.00" cy="1167.80" r="5.3" fill="#b64035" stroke="#fffdfa" stroke-width="1.4"/><polygon points="1030.00,683.95 1036.20,690.15 1030.00,696.35 1023.80,690.15" fill="#007f8c" stroke="#fffdfa" stroke-width="1.4"/><line x1="652.40" y1="1167.71" x2="1030.00" y2="545.31" stroke="#b7791f" stroke-width="2.4" opacity="0.68"/><circle cx="652.40" cy="1167.71" r="5.3" fill="#b64035" stroke="#fffdfa" stroke-width="1.4"/><polygon points="1030.00,539.11 1036.20,545.31 1030.00,551.51 1023.80,545.31" fill="#007f8c" stroke="#fffdfa" stroke-width="1.4"/><line x1="652.40" y1="1167.80" x2="652.40" y2="231.17" stroke="#b7791f" stroke-width="2.4" opacity="0.68"/><circle cx="652.40" cy="1167.80" r="5.3" fill="#b64035" stroke="#fffdfa" stroke-width="1.4"/><polygon points="652.40,224.97 658.60,231.17 652.40,237.37 646.20,231.17" fill="#007f8c" stroke="#fffdfa" stroke-width="1.4"/><line x1="1030.00" y1="1167.80" x2="1030.00" y2="327.51" stroke="#b7791f" stroke-width="2.4" opacity="0.68"/><circle cx="1030.00" cy="1167.80" r="5.3" fill="#b64035" stroke="#fffdfa" stroke-width="1.4"/><polygon points="1030.00,321.31 1036.20,327.51 1030.00,333.71 1023.80,327.51" fill="#007f8c" stroke="#fffdfa" stroke-width="1.4"/><line x1="652.40" y1="1167.71" x2="1030.00" y2="202.42" stroke="#b7791f" stroke-width="2.4" opacity="0.68"/><circle cx="652.40" cy="1167.71" r="5.3" fill="#b64035" stroke="#fffdfa" stroke-width="1.4"/><polygon points="1030.00,196.22 1036.20,202.42 1030.00,208.62 1023.80,202.42" fill="#007f8c" stroke="#fffdfa" stroke-width="1.4"/><line x1="463.60" y1="1167.71" x2="463.60" y2="365.94" stroke="#b7791f" stroke-width="2.4" opacity="0.68"/><circle cx="463.60" cy="1167.71" r="5.3" fill="#b64035" stroke="#fffdfa" stroke-width="1.4"/><polygon points="463.60,359.74 469.80,365.94 463.60,372.14 457.40,365.94" fill="#007f8c" stroke="#fffdfa" stroke-width="1.4"/><line x1="1030.00" y1="1167.71" x2="1030.00" y2="384.62" stroke="#b7791f" stroke-width="2.4" opacity="0.68"/><circle cx="1030.00" cy="1167.71" r="5.3" fill="#b64035" stroke="#fffdfa" stroke-width="1.4"/><polygon points="1030.00,378.42 1036.20,384.62 1030.00,390.82 1023.80,384.62" fill="#007f8c" stroke="#fffdfa" stroke-width="1.4"/><line x1="558.00" y1="1167.71" x2="1030.00" y2="661.10" stroke="#b7791f" stroke-width="2.4" opacity="0.68"/><circle cx="558.00" cy="1167.71" r="5.3" fill="#b64035" stroke="#fffdfa" stroke-width="1.4"/><polygon points="1030.00,654.90 1036.20,661.10 1030.00,667.30 1023.80,661.10" fill="#007f8c" stroke="#fffdfa" stroke-width="1.4"/><line x1="1030.00" y1="1167.71" x2="1030.00" y2="478.71" stroke="#b7791f" stroke-width="2.4" opacity="0.68"/><circle cx="1030.00" cy="1167.71" r="5.3" fill="#b64035" stroke="#fffdfa" stroke-width="1.4"/><polygon points="1030.00,472.51 1036.20,478.71 1030.00,484.91 1023.80,478.71" fill="#007f8c" stroke="#fffdfa" stroke-width="1.4"/><line x1="490.98" y1="1167.71" x2="895.01" y2="665.41" stroke="#b7791f" stroke-width="2.4" opacity="0.68"/><circle cx="490.98" cy="1167.71" r="5.3" fill="#b64035" stroke="#fffdfa" stroke-width="1.4"/><polygon points="895.01,659.21 901.21,665.41 895.01,671.61 888.81,665.41" fill="#007f8c" stroke="#fffdfa" stroke-width="1.4"/><line x1="1030.00" y1="1167.80" x2="1030.00" y2="387.56" stroke="#b7791f" stroke-width="2.4" opacity="0.68"/><circle cx="1030.00" cy="1167.80" r="5.3" fill="#b64035" stroke="#fffdfa" stroke-width="1.4"/><polygon points="1030.00,381.36 1036.20,387.56 1030.00,393.76 1023.80,387.56" fill="#007f8c" stroke="#fffdfa" stroke-width="1.4"/><line x1="1030.00" y1="1167.80" x2="1030.00" y2="390.29" stroke="#b7791f" stroke-width="2.4" opacity="0.68"/><circle cx="1030.00" cy="1167.80" r="5.3" fill="#b64035" stroke="#fffdfa" stroke-width="1.4"/><polygon points="1030.00,384.09 1036.20,390.29 1030.00,396.49 1023.80,390.29" fill="#007f8c" stroke="#fffdfa" stroke-width="1.4"/><line x1="652.40" y1="1167.61" x2="652.40" y2="249.27" stroke="#b7791f" stroke-width="2.4" opacity="0.68"/><circle cx="652.40" cy="1167.61" r="5.3" fill="#b64035" stroke="#fffdfa" stroke-width="1.4"/><polygon points="652.40,243.07 658.60,249.27 652.40,255.47 646.20,249.27" fill="#007f8c" stroke="#fffdfa" stroke-width="1.4"/><line x1="322.00" y1="1167.71" x2="558.00" y2="644.28" stroke="#b7791f" stroke-width="2.4" opacity="0.68"/><circle cx="322.00" cy="1167.71" r="5.3" fill="#b64035" stroke="#fffdfa" stroke-width="1.4"/><polygon points="558.00,638.08 564.20,644.28 558.00,650.48 551.80,644.28" fill="#007f8c" stroke="#fffdfa" stroke-width="1.4"/><line x1="86.00" y1="1167.12" x2="1030.00" y2="192.74" stroke="#b7791f" stroke-width="2.4" opacity="0.68"/><circle cx="86.00" cy="1167.12" r="5.3" fill="#b64035" stroke="#fffdfa" stroke-width="1.4"/><polygon points="1030.00,186.54 1036.20,192.74 1030.00,198.94 1023.80,192.74" fill="#007f8c" stroke="#fffdfa" stroke-width="1.4"/><line x1="86.00" y1="1167.90" x2="1030.00" y2="895.82" stroke="#b7791f" stroke-width="2.4" opacity="0.68"/><circle cx="86.00" cy="1167.90" r="5.3" fill="#b64035" stroke="#fffdfa" stroke-width="1.4"/><polygon points="1030.00,889.62 1036.20,895.82 1030.00,902.02 1023.80,895.82" fill="#007f8c" stroke="#fffdfa" stroke-width="1.4"/><line x1="86.00" y1="1167.22" x2="1030.00" y2="293.28" stroke="#b7791f" stroke-width="2.4" opacity="0.68"/><circle cx="86.00" cy="1167.22" r="5.3" fill="#b64035" stroke="#fffdfa" stroke-width="1.4"/><polygon points="1030.00,287.08 1036.20,293.28 1030.00,299.48 1023.80,293.28" fill="#007f8c" stroke="#fffdfa" stroke-width="1.4"/><line x1="652.40" y1="1167.80" x2="1030.00" y2="198.31" stroke="#b7791f" stroke-width="2.4" opacity="0.68"/><circle cx="652.40" cy="1167.80" r="5.3" fill="#b64035" stroke="#fffdfa" stroke-width="1.4"/><polygon points="1030.00,192.11 1036.20,198.31 1030.00,204.51 1023.80,198.31" fill="#007f8c" stroke="#fffdfa" stroke-width="1.4"/><line x1="558.00" y1="1167.71" x2="715.65" y2="208.19" stroke="#b7791f" stroke-width="2.4" opacity="0.68"/><circle cx="558.00" cy="1167.71" r="5.3" fill="#b64035" stroke="#fffdfa" stroke-width="1.4"/><polygon points="715.65,201.99 721.85,208.19 715.65,214.39 709.45,208.19" fill="#007f8c" stroke="#fffdfa" stroke-width="1.4"/><line x1="1030.00" y1="1167.80" x2="1030.00" y2="387.65" stroke="#b7791f" stroke-width="2.4" opacity="0.68"/><circle cx="1030.00" cy="1167.80" r="5.3" fill="#b64035" stroke="#fffdfa" stroke-width="1.4"/><polygon points="1030.00,381.45 1036.20,387.65 1030.00,393.85 1023.80,387.65" fill="#007f8c" stroke="#fffdfa" stroke-width="1.4"/><line x1="1030.00" y1="1167.71" x2="1030.00" y2="730.54" stroke="#b7791f" stroke-width="2.4" opacity="0.68"/><circle cx="1030.00" cy="1167.71" r="5.3" fill="#b64035" stroke="#fffdfa" stroke-width="1.4"/><polygon points="1030.00,724.34 1036.20,730.54 1030.00,736.74 1023.80,730.54" fill="#007f8c" stroke="#fffdfa" stroke-width="1.4"/><line x1="1030.00" y1="1167.02" x2="1030.00" y2="625.50" stroke="#b7791f" stroke-width="2.4" opacity="0.68"/><circle cx="1030.00" cy="1167.02" r="5.3" fill="#b64035" stroke="#fffdfa" stroke-width="1.4"/><polygon points="1030.00,619.30 1036.20,625.50 1030.00,631.70 1023.80,625.50" fill="#007f8c" stroke="#fffdfa" stroke-width="1.4"/><line x1="463.60" y1="1168.00" x2="1030.00" y2="706.48" stroke="#b7791f" stroke-width="2.4" opacity="0.68"/><circle cx="463.60" cy="1168.00" r="5.3" fill="#b64035" stroke="#fffdfa" stroke-width="1.4"/><polygon points="1030.00,700.28 1036.20,706.48 1030.00,712.68 1023.80,706.48" fill="#007f8c" stroke="#fffdfa" stroke-width="1.4"/><line x1="558.00" y1="1168.00" x2="1030.00" y2="740.81" stroke="#b7791f" stroke-width="2.4" opacity="0.68"/><circle cx="558.00" cy="1168.00" r="5.3" fill="#b64035" stroke="#fffdfa" stroke-width="1.4"/><polygon points="1030.00,734.61 1036.20,740.81 1030.00,747.01 1023.80,740.81" fill="#007f8c" stroke="#fffdfa" stroke-width="1.4"/><line x1="1030.00" y1="1168.00" x2="1030.00" y2="843.40" stroke="#b7791f" stroke-width="2.4" opacity="0.68"/><circle cx="1030.00" cy="1168.00" r="5.3" fill="#b64035" stroke="#fffdfa" stroke-width="1.4"/><polygon points="1030.00,837.20 1036.20,843.40 1030.00,849.60 1023.80,843.40" fill="#007f8c" stroke="#fffdfa" stroke-width="1.4"/><line x1="463.60" y1="1168.00" x2="1030.00" y2="732.59" stroke="#b7791f" stroke-width="2.4" opacity="0.68"/><circle cx="463.60" cy="1168.00" r="5.3" fill="#b64035" stroke="#fffdfa" stroke-width="1.4"/><polygon points="1030.00,726.39 1036.20,732.59 1030.00,738.79 1023.80,732.59" fill="#007f8c" stroke="#fffdfa" stroke-width="1.4"/><line x1="1030.00" y1="1167.80" x2="1030.00" y2="438.90" stroke="#b7791f" stroke-width="2.4" opacity="0.68"/><circle cx="1030.00" cy="1167.80" r="5.3" fill="#b64035" stroke="#fffdfa" stroke-width="1.4"/><polygon points="1030.00,432.70 1036.20,438.90 1030.00,445.10 1023.80,438.90" fill="#007f8c" stroke="#fffdfa" stroke-width="1.4"/><line x1="1030.00" y1="1167.71" x2="1030.00" y2="602.13" stroke="#b7791f" stroke-width="2.4" opacity="0.68"/><circle cx="1030.00" cy="1167.71" r="5.3" fill="#b64035" stroke="#fffdfa" stroke-width="1.4"/><polygon points="1030.00,595.93 1036.20,602.13 1030.00,608.33 1023.80,602.13" fill="#007f8c" stroke="#fffdfa" stroke-width="1.4"/><line x1="1030.00" y1="1167.80" x2="1030.00" y2="408.97" stroke="#b7791f" stroke-width="2.4" opacity="0.68"/><circle cx="1030.00" cy="1167.80" r="5.3" fill="#b64035" stroke="#fffdfa" stroke-width="1.4"/><polygon points="1030.00,402.77 1036.20,408.97 1030.00,415.17 1023.80,408.97" fill="#007f8c" stroke="#fffdfa" stroke-width="1.4"/><rect x="1060" y="190" width="436" height="230" rx="22" fill="#f6f1e7" stroke="#d8cfbd" stroke-width="1"/><text x="1088" y="224" class="value">Median tradeoff</text><line x1="1084" y1="244" x2="1472" y2="244" stroke="#d8cfbd" stroke-width="1"/><text x="1088" y="274" class="small">Grounding recall</text><text x="1088" y="312" class="value" fill="#1d7f63">+0.500</text><text x="1464" y="312" class="small" text-anchor="end">off 0.500 -> on 1.000</text><line x1="1084" y1="330" x2="1472" y2="330" stroke="#d8cfbd" stroke-width="1"/><text x="1088" y="360" class="small">Packet time</text><text x="1088" y="398" class="value" fill="#b42318">+7.045 ms</text><text x="1464" y="398" class="small" text-anchor="end">off 0.003 ms -&gt; on 7.048 ms</text><rect x="1060" y="438" width="436" height="176" rx="22" fill="#f6f1e7" stroke="#d8cfbd" stroke-width="1"/><text x="1088" y="468" class="value">How to read</text><text x="1088" y="496" class="label">Each line links the same benchmark</text><text x="1088" y="516" class="label">scenario in both modes.</text><text x="1088" y="536" class="label">Read right/down as better.</text><text x="1088" y="556" class="label">The main field spans recall 0.00 to</text><text x="1088" y="576" class="label">1.00 and packet time 0 to 10 ms.</text><rect x="1060" y="632" width="436" height="228" rx="22" fill="#f6f1e7" stroke="#d8cfbd" stroke-width="1"/><text x="1088" y="662" class="value">Scenario spotlight</text><text x="1088" y="686" class="label">Largest scenario recall gains per</text><text x="1088" y="706" class="label">added paired-time cost.</text><rect x="1084" y="722" width="388" height="34" rx="10" fill="#fffdfa" stroke="#d8cfbd" stroke-width="1"/><text x="1098" y="742" class="label">Exact runtime path am...</text><text x="1456" y="742" class="small" text-anchor="end">R +1.000 | +10.0 ms</text><rect x="1084" y="756" width="388" height="34" rx="10" fill="#fffdfa" stroke="#d8cfbd" stroke-width="1"/><text x="1098" y="776" class="label">Shell and Compass bro...</text><text x="1456" y="776" class="small" text-anchor="end">R +0.400 | +9.9 ms</text><rect x="1084" y="790" width="388" height="34" rx="10" fill="#fffdfa" stroke="#d8cfbd" stroke-width="1"/><text x="1098" y="810" class="label">Compass brief freshne...</text><text x="1456" y="810" class="small" text-anchor="end">R +0.400 | +9.9 ms</text><rect x="1060" y="878" width="436" height="292" rx="22" fill="#f6f1e7" stroke="#d8cfbd" stroke-width="1"/><text x="1088" y="910" class="value">Marks and signals</text><circle cx="1098" cy="934" r="5.5" fill="#b64035"/><text x="1116" y="939" class="small">Odylith off / raw host CLI</text><polygon points="1098.00,951.80 1104.20,958.00 1098.00,964.20 1091.80,958.00" fill="#007f8c"/><text x="1116" y="963" class="small">Odylith on</text><line x1="1092" y1="982" x2="1110" y2="982" stroke="#17202a" stroke-width="2.3"/><text x="1116" y="987" class="small">One connecting line = one</text><text x="1116" y="1005" class="small">scenario across both modes</text><line x1="1092" y1="1024" x2="1110" y2="1024" stroke="#1d7f63" stroke-width="2.5"/><text x="1116" y="1029" class="small">Odylith on improves recall and</text><text x="1116" y="1047" class="small">packet time</text><line x1="1092" y1="1066" x2="1110" y2="1066" stroke="#b7791f" stroke-width="2.5"/><text x="1116" y="1071" class="small">Split tradeoff or one-axis</text><text x="1116" y="1089" class="small">improvement</text><line x1="1092" y1="1108" x2="1110" y2="1108" stroke="#b42318" stroke-width="2.5"/><text x="1116" y="1113" class="small">Odylith off / raw host CLI wins</text><text x="1116" y="1131" class="small">recall and packet time</text><text x="1088" y="1212" class="small">Report 74cbe36427f2c375 | 2026-04-05T02:47:27Z | 37</text><text x="1088" y="1228" class="small">scenarios | Grounding Benchmark | warm</text><text x="1088" y="1244" class="small">Visual pair: odylith_on vs raw_agent_baseline</text><text x="1088" y="1260" class="small">Source: latest-diagnostic.v1.json</text></svg>