<svg xmlns="http://www.w3.org/2000/svg" width="1600" height="900" viewBox="0 0 1600 900" role="img" aria-label="Odylith benchmark operating posture"><title>Odylith benchmark operating posture</title><rect x="0" y="0" width="1600" height="900" rx="24" fill="#f6f1e7"/>
    <style>
      text { fill: #17202a; font-family: ui-sans-serif, system-ui, -apple-system, BlinkMacSystemFont, "Segoe UI", sans-serif; }
      .title { font-size: 30px; font-weight: 700; }
      .subtitle { font-size: 15px; fill: #5f6b76; }
      .axis { font-size: 14px; fill: #5f6b76; }
      .label { font-size: 13px; fill: #5f6b76; }
      .small { font-size: 12px; fill: #5f6b76; }
      .chip { font-size: 12px; font-weight: 700; }
      .value { font-size: 16px; font-weight: 700; }
      .cell { font-size: 12px; font-weight: 700; text-anchor: middle; dominant-baseline: middle; }
    </style>
    <rect x="44" y="40" width="1512" height="816" rx="28" fill="#fffdfa" stroke="#d8cfbd" stroke-width="1.5"/><text x="86" y="88" class="title">Grounding Benchmark operating posture on the Codex benchmark corpus</text><text x="86" y="114" class="subtitle">This is the system behavior behind the Codex scorecard: packet coverage, grounding, delegation readiness, and runtime</text><text x="86" y="132" class="subtitle">posture.</text><rect x="98" y="198" width="160" height="300" rx="18" fill="#f6f1e7" stroke="#d8cfbd" stroke-width="1"/><rect x="98" y="297.90" width="160" height="200.10" rx="18" fill="#469288"/><text x="178.00" y="532" class="label" text-anchor="middle">Packet present</text><text x="178.00" y="287.90" class="value" text-anchor="middle">67%</text><rect x="282" y="198" width="160" height="300" rx="18" fill="#f6f1e7" stroke="#d8cfbd" stroke-width="1"/><rect x="282" y="297.90" width="160" height="200.10" rx="18" fill="#469288"/><text x="362.00" y="532" class="label" text-anchor="middle">Auto grounding applied</text><text x="362.00" y="287.90" class="value" text-anchor="middle">67%</text><rect x="466" y="198" width="160" height="300" rx="18" fill="#f6f1e7" stroke="#d8cfbd" stroke-width="1"/><rect x="466" y="323.10" width="160" height="174.90" rx="18" fill="#54998f"/><text x="546.00" y="532" class="label" text-anchor="middle">Route ready</text><text x="546.00" y="313.10" class="value" text-anchor="middle">58%</text><rect x="650" y="198" width="160" height="300" rx="18" fill="#f6f1e7" stroke="#d8cfbd" stroke-width="1"/><rect x="650" y="323.10" width="160" height="174.90" rx="18" fill="#54998f"/><text x="730.00" y="532" class="label" text-anchor="middle">Native spawn ready</text><text x="730.00" y="313.10" class="value" text-anchor="middle">58%</text><rect x="834" y="198" width="160" height="300" rx="18" fill="#f6f1e7" stroke="#d8cfbd" stroke-width="1"/><rect x="834" y="398.10" width="160" height="99.90" rx="18" fill="#7eaea3"/><text x="914.00" y="532" class="label" text-anchor="middle">Grounded delegate</text><text x="914.00" y="388.10" class="value" text-anchor="middle">33%</text><rect x="1056" y="170" width="440" height="358" rx="22" fill="#f6f1e7" stroke="#d8cfbd" stroke-width="1"/><text x="1084" y="208" class="value">Operation mix</text><line x1="1080" y1="226" x2="1472" y2="226" stroke="#d8cfbd" stroke-width="1"/><text x="1084" y="248" class="label">Impact</text><rect x="1084" y="266" width="300" height="18" rx="9" fill="#fffdfa" stroke="#d8cfbd" stroke-width="1"/><rect x="1084" y="266" width="100.00" height="18" rx="9" fill="#0f766e"/><text x="1468" y="279" class="label" text-anchor="end">4 scenarios</text><text x="1084" y="322" class="label">None</text><rect x="1084" y="340" width="300" height="18" rx="9" fill="#fffdfa" stroke="#d8cfbd" stroke-width="1"/><rect x="1084" y="340" width="100.00" height="18" rx="9" fill="#375a7f"/><text x="1468" y="353" class="label" text-anchor="end">4 scenarios</text><text x="1084" y="396" class="label">Architecture</text><rect x="1084" y="414" width="300" height="18" rx="9" fill="#fffdfa" stroke="#d8cfbd" stroke-width="1"/><rect x="1084" y="414" width="75.00" height="18" rx="9" fill="#375a7f"/><text x="1468" y="427" class="label" text-anchor="end">3 scenarios</text><text x="1084" y="470" class="label">Governance Slice</text><rect x="1084" y="488" width="300" height="18" rx="9" fill="#fffdfa" stroke="#d8cfbd" stroke-width="1"/><rect x="1084" y="488" width="25.00" height="18" rx="9" fill="#115e59"/><text x="1468" y="501" class="label" text-anchor="end">1 scenarios</text><rect x="98" y="578" width="430" height="92" rx="18" fill="#f6f1e7" stroke="#d8cfbd" stroke-width="1"/><rect x="116" y="596" width="10" height="56" rx="5" fill="#b7791f"/><text x="144" y="618" class="label">Requires widening</text><text x="144" y="646" class="value">0%</text><rect x="554" y="578" width="430" height="92" rx="18" fill="#f6f1e7" stroke="#d8cfbd" stroke-width="1"/><rect x="572" y="596" width="10" height="56" rx="5" fill="#0f766e"/><text x="600" y="618" class="label">Workspace daemon reused</text><text x="600" y="646" class="value">67%</text><rect x="1010" y="578" width="430" height="92" rx="18" fill="#f6f1e7" stroke="#d8cfbd" stroke-width="1"/><rect x="1028" y="596" width="10" height="56" rx="5" fill="#0f766e"/><text x="1056" y="618" class="label">Session namespaced</text><text x="1056" y="646" class="value">67%</text><rect x="98" y="694" width="430" height="92" rx="18" fill="#f6f1e7" stroke="#d8cfbd" stroke-width="1"/><rect x="116" y="712" width="10" height="56" rx="5" fill="#0f766e"/><text x="144" y="734" class="label">Governance runtime-first</text><text x="144" y="762" class="value">0%</text><rect x="554" y="694" width="430" height="92" rx="18" fill="#f6f1e7" stroke="#d8cfbd" stroke-width="1"/><rect x="572" y="712" width="10" height="56" rx="5" fill="#1d7f63"/><text x="600" y="734" class="label">Repo-scan degraded fallback</text><text x="600" y="762" class="value">0%</text><rect x="1010" y="694" width="430" height="92" rx="18" fill="#f6f1e7" stroke="#d8cfbd" stroke-width="1"/><rect x="1028" y="712" width="10" height="56" rx="5" fill="#6b46c1"/><text x="1056" y="734" class="label">Memory standardization</text><text x="1056" y="762" class="value">standardized</text><text x="98" y="814" class="small">Report 74cbe36427f2c375 | 2026-04-05T02:47:27Z | 37 scenarios | Grounding Benchmark | single_profile (warm)</text><text x="98" y="836" class="small">Rates come from adoption_proof when sampled; otherwise they fall back to published_summary and runtime_posture for the active benchmark profile.</text></svg>