<svg xmlns="http://www.w3.org/2000/svg" width="1600" height="1368" viewBox="0 0 1600 1368" role="img" aria-label="Odylith benchmark quality frontier"><title>Odylith benchmark quality frontier</title><rect x="0" y="0" width="1600" height="1368" rx="24" fill="#f6f1e7"/>
    <style>
      text { fill: #17202a; font-family: ui-sans-serif, system-ui, -apple-system, BlinkMacSystemFont, "Segoe UI", sans-serif; }
      .title { font-size: 30px; font-weight: 700; }
      .subtitle { font-size: 15px; fill: #5f6b76; }
      .label { font-size: 14px; fill: #5f6b76; }
      .small { font-size: 12px; fill: #5f6b76; }
      .value { font-size: 20px; font-weight: 700; }
      .metric { font-size: 24px; font-weight: 700; }
      .chip { font-size: 12px; font-weight: 700; }
    </style>
    <rect x="44" y="40" width="1512" height="1288" rx="28" fill="#fffdfa" stroke="#d8cfbd" stroke-width="1.5"/><text x="86" y="86" class="title">Live Benchmark Quality Frontier: grounding recall vs time to valid outcome</text><text x="86" y="112" class="subtitle">Each line connects the same benchmark scenario with Odylith off (red) and Odylith on (teal). Right is better and</text><text x="86" y="130" class="subtitle">lower time to valid outcome is better.</text><text x="86" y="156" class="small">Static chart: full recall range | all 37 published scenarios in frame</text><text x="478" y="156" class="small" fill="#1d7f63">| all 60 points stay naturally visible on observed paired-time spread</text><rect x="86" y="190" width="944" height="998" rx="24" fill="#faf7ef" stroke="#d8cfbd" stroke-width="1"/><line x1="86.00" y1="190" x2="86.00" y2="1188" stroke="#d8cfbd" stroke-width="1" opacity="0.8"/><text x="86.00" y="1214" class="axis" text-anchor="middle">0.00</text><line x1="322.00" y1="190" x2="322.00" y2="1188" stroke="#d8cfbd" stroke-width="1" opacity="0.8"/><text x="322.00" y="1214" class="axis" text-anchor="middle">0.25</text><line x1="558.00" y1="190" x2="558.00" y2="1188" stroke="#d8cfbd" stroke-width="1" opacity="0.8"/><text x="558.00" y="1214" class="axis" text-anchor="middle">0.50</text><line x1="794.00" y1="190" x2="794.00" y2="1188" stroke="#d8cfbd" stroke-width="1" opacity="0.8"/><text x="794.00" y="1214" class="axis" text-anchor="middle">0.75</text><line x1="1030.00" y1="190" x2="1030.00" y2="1188" stroke="#d8cfbd" stroke-width="1" opacity="0.8"/><text x="1030.00" y="1214" class="axis" text-anchor="middle">1.00</text><line x1="86" y1="1188.00" x2="1030" y2="1188.00" stroke="#d8cfbd" stroke-width="1" opacity="0.8"/><text x="68" y="1192.00" class="axis" text-anchor="end">0s</text><line x1="86" y1="1021.67" x2="1030" y2="1021.67" stroke="#d8cfbd" stroke-width="1" opacity="0.8"/><text x="68" y="1025.67" class="axis" text-anchor="end">1m 40s</text><line x1="86" y1="855.33" x2="1030" y2="855.33" stroke="#d8cfbd" stroke-width="1" opacity="0.8"/><text x="68" y="859.33" class="axis" text-anchor="end">3m 20s</text><line x1="86" y1="689.00" x2="1030" y2="689.00" stroke="#d8cfbd" stroke-width="1" opacity="0.8"/><text x="68" y="693.00" class="axis" text-anchor="end">5m 00s</text><line x1="86" y1="522.67" x2="1030" y2="522.67" stroke="#d8cfbd" stroke-width="1" opacity="0.8"/><text x="68" y="526.67" class="axis" text-anchor="end">6m 40s</text><line x1="86" y1="356.33" x2="1030" y2="356.33" stroke="#d8cfbd" stroke-width="1" opacity="0.8"/><text x="68" y="360.33" class="axis" text-anchor="end">8m 20s</text><line x1="86" y1="190.00" x2="1030" y2="190.00" stroke="#d8cfbd" stroke-width="1" opacity="0.8"/><text x="68" y="194.00" class="axis" text-anchor="end">10m 00s</text><line x1="86" y1="1188" x2="1030" y2="1188" stroke="#17202a" stroke-width="2"/><line x1="86" y1="190" x2="86" y2="1188" stroke="#17202a" stroke-width="2"/><text x="558.00" y="1242" class="label" text-anchor="middle">Grounding recall</text><text x="28" y="689.00" class="label" text-anchor="middle" transform="rotate(-90 28 689.00)">Time to valid outcome</text><text x="86" y="1266" class="small">All published scenario pairs stay in frame without synthetic spreading because time to valid outcome provides natural point separation.</text><line x1="1030.00" y1="190" x2="1030.00" y2="1188" stroke="#b64035" stroke-width="1.8" stroke-dasharray="7 6" opacity="0.8"/><line x1="1030.00" y1="190" x2="1030.00" y2="1188" stroke="#007f8c" stroke-width="1.8" stroke-dasharray="7 6" opacity="0.8"/><line x1="86" y1="1042.21" x2="1030" y2="1042.21" stroke="#b64035" stroke-width="1.8" stroke-dasharray="7 6" opacity="0.8"/><line x1="86" y1="1092.71" x2="1030" y2="1092.71" stroke="#007f8c" stroke-width="1.8" stroke-dasharray="7 6" opacity="0.8"/><line x1="841.20" y1="1071.53" x2="1030.00" y2="1109.47" stroke="#1d7f63" stroke-width="2.4" opacity="0.68"/><circle cx="841.20" cy="1071.53" r="5.3" fill="#b64035" stroke="#fffdfa" stroke-width="1.4"/><polygon points="1030.00,1103.27 1036.20,1109.47 1030.00,1115.67 1023.80,1109.47" fill="#007f8c" stroke="#fffdfa" stroke-width="1.4"/><line x1="86.00" y1="1156.38" x2="1030.00" y2="1154.49" stroke="#b7791f" stroke-width="2.4" opacity="0.68"/><circle cx="86.00" cy="1156.38" r="5.3" fill="#b64035" stroke="#fffdfa" stroke-width="1.4"/><polygon points="1030.00,1148.29 1036.20,1154.49 1030.00,1160.69 1023.80,1154.49" fill="#007f8c" stroke="#fffdfa" stroke-width="1.4"/><line x1="1030.00" y1="1135.80" x2="1030.00" y2="1162.55" stroke="#1d7f63" stroke-width="2.4" opacity="0.68"/><circle cx="1030.00" cy="1135.80" r="5.3" fill="#b64035" stroke="#fffdfa" stroke-width="1.4"/><polygon points="1030.00,1156.35 1036.20,1162.55 1030.00,1168.75 1023.80,1162.55" fill="#007f8c" stroke="#fffdfa" stroke-width="1.4"/><line x1="676.00" y1="983.19" x2="912.00" y2="1119.71" stroke="#1d7f63" stroke-width="2.4" opacity="0.68"/><circle cx="676.00" cy="983.19" r="5.3" fill="#b64035" stroke="#fffdfa" stroke-width="1.4"/><polygon points="912.00,1113.51 918.20,1119.71 912.00,1125.91 905.80,1119.71" fill="#007f8c" stroke="#fffdfa" stroke-width="1.4"/><line x1="652.40" y1="805.31" x2="1030.00" y2="880.41" stroke="#1d7f63" stroke-width="2.4" opacity="0.68"/><circle cx="652.40" cy="805.31" r="5.3" fill="#b64035" stroke="#fffdfa" stroke-width="1.4"/><polygon points="1030.00,874.21 1036.20,880.41 1030.00,886.61 1023.80,880.41" fill="#007f8c" stroke="#fffdfa" stroke-width="1.4"/><line x1="715.65" y1="918.66" x2="1030.00" y2="904.72" stroke="#b7791f" stroke-width="2.4" opacity="0.68"/><circle cx="715.65" cy="918.66" r="5.3" fill="#b64035" stroke="#fffdfa" stroke-width="1.4"/><polygon points="1030.00,898.52 1036.20,904.72 1030.00,910.92 1023.80,904.72" fill="#007f8c" stroke="#fffdfa" stroke-width="1.4"/><line x1="1030.00" y1="927.17" x2="1030.00" y2="293.35" stroke="#b7791f" stroke-width="2.4" opacity="0.68"/><circle cx="1030.00" cy="927.17" r="5.3" fill="#b64035" stroke="#fffdfa" stroke-width="1.4"/><polygon points="1030.00,287.15 1036.20,293.35 1030.00,299.55 1023.80,293.35" fill="#007f8c" stroke="#fffdfa" stroke-width="1.4"/><line x1="558.00" y1="1050.86" x2="1030.00" y2="967.87" stroke="#b7791f" stroke-width="2.4" opacity="0.68"/><circle cx="558.00" cy="1050.86" r="5.3" fill="#b64035" stroke="#fffdfa" stroke-width="1.4"/><polygon points="1030.00,961.67 1036.20,967.87 1030.00,974.07 1023.80,967.87" fill="#007f8c" stroke="#fffdfa" stroke-width="1.4"/><line x1="1030.00" y1="872.37" x2="1030.00" y2="822.65" stroke="#b7791f" stroke-width="2.4" opacity="0.68"/><circle cx="1030.00" cy="872.37" r="5.3" fill="#b64035" stroke="#fffdfa" stroke-width="1.4"/><polygon points="1030.00,816.45 1036.20,822.65 1030.00,828.85 1023.80,822.65" fill="#007f8c" stroke="#fffdfa" stroke-width="1.4"/><line x1="841.20" y1="1011.12" x2="1030.00" y2="1018.18" stroke="#1d7f63" stroke-width="2.4" opacity="0.68"/><circle cx="841.20" cy="1011.12" r="5.3" fill="#b64035" stroke="#fffdfa" stroke-width="1.4"/><polygon points="1030.00,1011.98 1036.20,1018.18 1030.00,1024.38 1023.80,1018.18" fill="#007f8c" stroke="#fffdfa" stroke-width="1.4"/><line x1="841.20" y1="724.39" x2="1030.00" y2="873.66" stroke="#1d7f63" stroke-width="2.4" opacity="0.68"/><circle cx="841.20" cy="724.39" r="5.3" fill="#b64035" stroke="#fffdfa" stroke-width="1.4"/><polygon points="1030.00,867.46 1036.20,873.66 1030.00,879.86 1023.80,873.66" fill="#007f8c" stroke="#fffdfa" stroke-width="1.4"/><line x1="1030.00" y1="1014.68" x2="1030.00" y2="804.72" stroke="#b7791f" stroke-width="2.4" opacity="0.68"/><circle cx="1030.00" cy="1014.68" r="5.3" fill="#b64035" stroke="#fffdfa" stroke-width="1.4"/><polygon points="1030.00,798.52 1036.20,804.72 1030.00,810.92 1023.80,804.72" fill="#007f8c" stroke="#fffdfa" stroke-width="1.4"/><line x1="652.40" y1="978.16" x2="1030.00" y2="581.37" stroke="#b7791f" stroke-width="2.4" opacity="0.68"/><circle cx="652.40" cy="978.16" r="5.3" fill="#b64035" stroke="#fffdfa" stroke-width="1.4"/><polygon points="1030.00,575.17 1036.20,581.37 1030.00,587.57 1023.80,581.37" fill="#007f8c" stroke="#fffdfa" stroke-width="1.4"/><line x1="463.60" y1="1041.31" x2="1030.00" y2="1014.52" stroke="#b7791f" stroke-width="2.4" opacity="0.68"/><circle cx="463.60" cy="1041.31" r="5.3" fill="#b64035" stroke="#fffdfa" stroke-width="1.4"/><polygon points="1030.00,1008.32 1036.20,1014.52 1030.00,1020.72 1023.80,1014.52" fill="#007f8c" stroke="#fffdfa" stroke-width="1.4"/><line x1="1030.00" y1="1065.36" x2="1030.00" y2="1118.53" stroke="#1d7f63" stroke-width="2.4" opacity="0.68"/><circle cx="1030.00" cy="1065.36" r="5.3" fill="#b64035" stroke="#fffdfa" stroke-width="1.4"/><polygon points="1030.00,1112.33 1036.20,1118.53 1030.00,1124.73 1023.80,1118.53" fill="#007f8c" stroke="#fffdfa" stroke-width="1.4"/><line x1="872.35" y1="784.17" x2="1030.00" y2="875.71" stroke="#1d7f63" stroke-width="2.4" opacity="0.68"/><circle cx="872.35" cy="784.17" r="5.3" fill="#b64035" stroke="#fffdfa" stroke-width="1.4"/><polygon points="1030.00,869.51 1036.20,875.71 1030.00,881.91 1023.80,875.71" fill="#007f8c" stroke="#fffdfa" stroke-width="1.4"/><line x1="1030.00" y1="1095.98" x2="1030.00" y2="1120.75" stroke="#1d7f63" stroke-width="2.4" opacity="0.68"/><circle cx="1030.00" cy="1095.98" r="5.3" fill="#b64035" stroke="#fffdfa" stroke-width="1.4"/><polygon points="1030.00,1114.55 1036.20,1120.75 1030.00,1126.95 1023.80,1120.75" fill="#007f8c" stroke="#fffdfa" stroke-width="1.4"/><line x1="760.02" y1="944.55" x2="1030.00" y2="1118.99" stroke="#1d7f63" stroke-width="2.4" opacity="0.68"/><circle cx="760.02" cy="944.55" r="5.3" fill="#b64035" stroke="#fffdfa" stroke-width="1.4"/><polygon points="1030.00,1112.79 1036.20,1118.99 1030.00,1125.19 1023.80,1118.99" fill="#007f8c" stroke="#fffdfa" stroke-width="1.4"/><line x1="1030.00" y1="1149.67" x2="1030.00" y2="1147.45" stroke="#b7791f" stroke-width="2.4" opacity="0.68"/><circle cx="1030.00" cy="1149.67" r="5.3" fill="#b64035" stroke="#fffdfa" stroke-width="1.4"/><polygon points="1030.00,1141.25 1036.20,1147.45 1030.00,1153.65 1023.80,1147.45" fill="#007f8c" stroke="#fffdfa" stroke-width="1.4"/><line x1="1030.00" y1="1088.77" x2="1030.00" y2="1090.54" stroke="#1d7f63" stroke-width="2.4" opacity="0.68"/><circle cx="1030.00" cy="1088.77" r="5.3" fill="#b64035" stroke="#fffdfa" stroke-width="1.4"/><polygon points="1030.00,1084.34 1036.20,1090.54 1030.00,1096.74 1023.80,1090.54" fill="#007f8c" stroke="#fffdfa" stroke-width="1.4"/><line x1="652.40" y1="939.11" x2="1030.00" y2="924.50" stroke="#b7791f" stroke-width="2.4" opacity="0.68"/><circle cx="652.40" cy="939.11" r="5.3" fill="#b64035" stroke="#fffdfa" stroke-width="1.4"/><polygon points="1030.00,918.30 1036.20,924.50 1030.00,930.70 1023.80,924.50" fill="#007f8c" stroke="#fffdfa" stroke-width="1.4"/><line x1="951.65" y1="1042.18" x2="1030.00" y2="866.88" stroke="#b7791f" stroke-width="2.4" opacity="0.68"/><circle cx="951.65" cy="1042.18" r="5.3" fill="#b64035" stroke="#fffdfa" stroke-width="1.4"/><polygon points="1030.00,860.68 1036.20,866.88 1030.00,873.08 1023.80,866.88" fill="#007f8c" stroke="#fffdfa" stroke-width="1.4"/><line x1="1030.00" y1="1042.21" x2="1030.00" y2="1163.35" stroke="#1d7f63" stroke-width="2.4" opacity="0.68"/><circle cx="1030.00" cy="1042.21" r="5.3" fill="#b64035" stroke="#fffdfa" stroke-width="1.4"/><polygon points="1030.00,1157.15 1036.20,1163.35 1030.00,1169.55 1023.80,1163.35" fill="#007f8c" stroke="#fffdfa" stroke-width="1.4"/><line x1="1030.00" y1="1083.16" x2="1030.00" y2="1151.34" stroke="#1d7f63" stroke-width="2.4" opacity="0.68"/><circle cx="1030.00" cy="1083.16" r="5.3" fill="#b64035" stroke="#fffdfa" stroke-width="1.4"/><polygon points="1030.00,1145.14 1036.20,1151.34 1030.00,1157.54 1023.80,1151.34" fill="#007f8c" stroke="#fffdfa" stroke-width="1.4"/><line x1="1030.00" y1="927.38" x2="1030.00" y2="1160.20" stroke="#1d7f63" stroke-width="2.4" opacity="0.68"/><circle cx="1030.00" cy="927.38" r="5.3" fill="#b64035" stroke="#fffdfa" stroke-width="1.4"/><polygon points="1030.00,1154.00 1036.20,1160.20 1030.00,1166.40 1023.80,1160.20" fill="#007f8c" stroke="#fffdfa" stroke-width="1.4"/><line x1="1030.00" y1="767.33" x2="1030.00" y2="791.63" stroke="#1d7f63" stroke-width="2.4" opacity="0.68"/><circle cx="1030.00" cy="767.33" r="5.3" fill="#b64035" stroke="#fffdfa" stroke-width="1.4"/><polygon points="1030.00,785.43 1036.20,791.63 1030.00,797.83 1023.80,791.63" fill="#007f8c" stroke="#fffdfa" stroke-width="1.4"/><line x1="872.35" y1="810.85" x2="1030.00" y2="1022.07" stroke="#1d7f63" stroke-width="2.4" opacity="0.68"/><circle cx="872.35" cy="810.85" r="5.3" fill="#b64035" stroke="#fffdfa" stroke-width="1.4"/><polygon points="1030.00,1015.87 1036.20,1022.07 1030.00,1028.27 1023.80,1022.07" fill="#007f8c" stroke="#fffdfa" stroke-width="1.4"/><line x1="1030.00" y1="1070.35" x2="1030.00" y2="1109.67" stroke="#1d7f63" stroke-width="2.4" opacity="0.68"/><circle cx="1030.00" cy="1070.35" r="5.3" fill="#b64035" stroke="#fffdfa" stroke-width="1.4"/><polygon points="1030.00,1103.47 1036.20,1109.67 1030.00,1115.87 1023.80,1109.67" fill="#007f8c" stroke="#fffdfa" stroke-width="1.4"/><line x1="1030.00" y1="1126.88" x2="1030.00" y2="1128.12" stroke="#1d7f63" stroke-width="2.4" opacity="0.68"/><circle cx="1030.00" cy="1126.88" r="5.3" fill="#b64035" stroke="#fffdfa" stroke-width="1.4"/><polygon points="1030.00,1121.92 1036.20,1128.12 1030.00,1134.32 1023.80,1128.12" fill="#007f8c" stroke="#fffdfa" stroke-width="1.4"/><line x1="1030.00" y1="1136.50" x2="1030.00" y2="1135.43" stroke="#b7791f" stroke-width="2.4" opacity="0.68"/><circle cx="1030.00" cy="1136.50" r="5.3" fill="#b64035" stroke="#fffdfa" stroke-width="1.4"/><polygon points="1030.00,1129.23 1036.20,1135.43 1030.00,1141.63 1023.80,1135.43" fill="#007f8c" stroke="#fffdfa" stroke-width="1.4"/><line x1="463.60" y1="1013.29" x2="1030.00" y2="994.01" stroke="#b7791f" stroke-width="2.4" opacity="0.68"/><circle cx="463.60" cy="1013.29" r="5.3" fill="#b64035" stroke="#fffdfa" stroke-width="1.4"/><polygon points="1030.00,987.81 1036.20,994.01 1030.00,1000.21 1023.80,994.01" fill="#007f8c" stroke="#fffdfa" stroke-width="1.4"/><line x1="558.00" y1="1109.40" x2="1030.00" y2="1092.71" stroke="#b7791f" stroke-width="2.4" opacity="0.68"/><circle cx="558.00" cy="1109.40" r="5.3" fill="#b64035" stroke="#fffdfa" stroke-width="1.4"/><polygon points="1030.00,1086.51 1036.20,1092.71 1030.00,1098.91 1023.80,1092.71" fill="#007f8c" stroke="#fffdfa" stroke-width="1.4"/><line x1="1030.00" y1="1108.37" x2="1030.00" y2="1160.92" stroke="#1d7f63" stroke-width="2.4" opacity="0.68"/><circle cx="1030.00" cy="1108.37" r="5.3" fill="#b64035" stroke="#fffdfa" stroke-width="1.4"/><polygon points="1030.00,1154.72 1036.20,1160.92 1030.00,1167.12 1023.80,1160.92" fill="#007f8c" stroke="#fffdfa" stroke-width="1.4"/><line x1="463.60" y1="1062.94" x2="1030.00" y2="917.54" stroke="#b7791f" stroke-width="2.4" opacity="0.68"/><circle cx="463.60" cy="1062.94" r="5.3" fill="#b64035" stroke="#fffdfa" stroke-width="1.4"/><polygon points="1030.00,911.34 1036.20,917.54 1030.00,923.74 1023.80,917.54" fill="#007f8c" stroke="#fffdfa" stroke-width="1.4"/><line x1="1030.00" y1="1143.00" x2="1030.00" y2="1100.79" stroke="#b7791f" stroke-width="2.4" opacity="0.68"/><circle cx="1030.00" cy="1143.00" r="5.3" fill="#b64035" stroke="#fffdfa" stroke-width="1.4"/><polygon points="1030.00,1094.59 1036.20,1100.79 1030.00,1106.99 1023.80,1100.79" fill="#007f8c" stroke="#fffdfa" stroke-width="1.4"/><line x1="1030.00" y1="1094.26" x2="1030.00" y2="1106.55" stroke="#1d7f63" stroke-width="2.4" opacity="0.68"/><circle cx="1030.00" cy="1094.26" r="5.3" fill="#b64035" stroke="#fffdfa" stroke-width="1.4"/><polygon points="1030.00,1100.35 1036.20,1106.55 1030.00,1112.75 1023.80,1106.55" fill="#007f8c" stroke="#fffdfa" stroke-width="1.4"/><line x1="1030.00" y1="1097.41" x2="1030.00" y2="1097.43" stroke="#1d7f63" stroke-width="2.4" opacity="0.68"/><circle cx="1030.00" cy="1097.41" r="5.3" fill="#b64035" stroke="#fffdfa" stroke-width="1.4"/><polygon points="1030.00,1091.23 1036.20,1097.43 1030.00,1103.63 1023.80,1097.43" fill="#007f8c" stroke="#fffdfa" stroke-width="1.4"/><rect x="1060" y="190" width="436" height="230" rx="22" fill="#f6f1e7" stroke="#d8cfbd" stroke-width="1"/><text x="1088" y="224" class="value">Median tradeoff</text><line x1="1084" y1="244" x2="1472" y2="244" stroke="#d8cfbd" stroke-width="1"/><text x="1088" y="274" class="small">Grounding recall</text><text x="1088" y="312" class="value" fill="#17202a">+0.000</text><text x="1464" y="312" class="small" text-anchor="end">off 1.000 -> on 1.000</text><line x1="1084" y1="330" x2="1472" y2="330" stroke="#d8cfbd" stroke-width="1"/><text x="1088" y="360" class="small">Time to valid outcome</text><text x="1088" y="398" class="value" fill="#1d7f63">-35% (-30s)</text><text x="1464" y="398" class="small" text-anchor="end">off 1m 28s -&gt; on 57s</text><rect x="1060" y="438" width="436" height="196" rx="22" fill="#f6f1e7" stroke="#d8cfbd" stroke-width="1"/><text x="1088" y="468" class="value">How to read</text><text x="1088" y="496" class="label">Each line links the same benchmark</text><text x="1088" y="516" class="label">scenario in both modes.</text><text x="1088" y="536" class="label">Read right/down as better.</text><text x="1088" y="556" class="label">The main field spans recall 0.00 to</text><text x="1088" y="576" class="label">1.00 and time to valid outcome 0 to</text><text x="1088" y="596" class="label">10m 00s.</text><rect x="1060" y="652" width="436" height="228" rx="22" fill="#f6f1e7" stroke="#d8cfbd" stroke-width="1"/><text x="1088" y="682" class="value">Scenario spotlight</text><text x="1088" y="706" class="label">Largest scenario recall gains per</text><text x="1088" y="726" class="label">added paired-time cost.</text><rect x="1084" y="742" width="388" height="34" rx="10" fill="#fffdfa" stroke="#d8cfbd" stroke-width="1"/><text x="1098" y="762" class="label">Session brief exact p...</text><text x="1456" y="762" class="small" text-anchor="end">R +0.000 | -2m 20s</text><rect x="1084" y="776" width="388" height="34" rx="10" fill="#fffdfa" stroke="#d8cfbd" stroke-width="1"/><text x="1098" y="796" class="label">Tooling dashboard onb...</text><text x="1456" y="796" class="small" text-anchor="end">R +0.167 | -2m 07s</text><rect x="1084" y="810" width="388" height="34" rx="10" fill="#fffdfa" stroke="#d8cfbd" stroke-width="1"/><text x="1098" y="830" class="label">Install time agent ac...</text><text x="1456" y="830" class="small" text-anchor="end">R +0.286 | -1m 45s</text><rect x="1060" y="898" width="436" height="292" rx="22" fill="#f6f1e7" stroke="#d8cfbd" stroke-width="1"/><text x="1088" y="930" class="value">Marks and signals</text><circle cx="1098" cy="954" r="5.5" fill="#b64035"/><text x="1116" y="959" class="small">Odylith off / raw Codex CLI</text><polygon points="1098.00,971.80 1104.20,978.00 1098.00,984.20 1091.80,978.00" fill="#007f8c"/><text x="1116" y="983" class="small">Odylith on</text><line x1="1092" y1="1002" x2="1110" y2="1002" stroke="#17202a" stroke-width="2.3"/><text x="1116" y="1007" class="small">One connecting line = one</text><text x="1116" y="1025" class="small">scenario across both modes</text><line x1="1092" y1="1044" x2="1110" y2="1044" stroke="#1d7f63" stroke-width="2.5"/><text x="1116" y="1049" class="small">Odylith on improves recall and</text><text x="1116" y="1067" class="small">time to valid outcome</text><line x1="1092" y1="1086" x2="1110" y2="1086" stroke="#b7791f" stroke-width="2.5"/><text x="1116" y="1091" class="small">Split tradeoff or one-axis</text><text x="1116" y="1109" class="small">improvement</text><line x1="1092" y1="1128" x2="1110" y2="1128" stroke="#b42318" stroke-width="2.5"/><text x="1116" y="1133" class="small">Odylith off / raw Codex CLI wins</text><text x="1116" y="1151" class="small">recall and time to valid outcome</text><text x="1088" y="1232" class="small">Report 926bfeab4e887ade | 2026-04-05T02:51:01Z | 37</text><text x="1088" y="1248" class="small">scenarios | Live Benchmark | warm, cold</text><text x="1088" y="1264" class="small">Visual pair: odylith_on vs raw_agent_baseline</text><text x="1088" y="1280" class="small">Source: latest.v1.json</text></svg>