<svg xmlns="http://www.w3.org/2000/svg" width="1600" height="1382" viewBox="0 0 1600 1382" role="img" aria-label="Odylith benchmark frontier"><title>Odylith benchmark frontier</title><rect x="0" y="0" width="1600" height="1382" rx="24" fill="#f6f1e7"/>
    <style>
      text { fill: #17202a; font-family: ui-sans-serif, system-ui, -apple-system, BlinkMacSystemFont, "Segoe UI", sans-serif; }
      .title { font-size: 30px; font-weight: 700; }
      .subtitle { font-size: 15px; fill: #5f6b76; }
      .axis { font-size: 14px; fill: #5f6b76; }
      .label { font-size: 13px; fill: #5f6b76; }
      .small { font-size: 12px; fill: #5f6b76; }
      .chip { font-size: 12px; font-weight: 700; }
      .value { font-size: 16px; font-weight: 700; }
      .cell { font-size: 12px; font-weight: 700; text-anchor: middle; dominant-baseline: middle; }
    </style>
    <rect x="44" y="40" width="1512" height="1302" rx="28" fill="#fffdfa" stroke="#d8cfbd" stroke-width="1.5"/><text x="86" y="86" class="title">Live Benchmark: time to valid outcome vs live session input</text><text x="86" y="112" class="subtitle">The main field is zoomed to the dense scenario cluster so long-tail cases do not flatten the rest. Left and down</text><text x="86" y="130" class="subtitle">is better for live session input and time to valid outcome.</text><text x="86" y="156" class="small">Static chart: Focus window | 35 of 37 scenarios in frame</text><text x="420" y="156" class="small" fill="#b42318">| 2 long-tail outliers called out separately</text><rect x="86" y="190" width="944" height="1012" rx="24" fill="#faf7ef" stroke="#d8cfbd" stroke-width="1"/><line x1="86.00" y1="190" x2="86.00" y2="1202" stroke="#d8cfbd" stroke-width="1" opacity="0.8"/><text x="86.00" y="1228" class="axis" text-anchor="middle">0</text><line x1="220.86" y1="190" x2="220.86" y2="1202" stroke="#d8cfbd" stroke-width="1" opacity="0.8"/><text x="220.86" y="1228" class="axis" text-anchor="middle">285.7k</text><line x1="355.71" y1="190" x2="355.71" y2="1202" stroke="#d8cfbd" stroke-width="1" opacity="0.8"/><text x="355.71" y="1228" class="axis" text-anchor="middle">571.4k</text><line x1="490.57" y1="190" x2="490.57" y2="1202" stroke="#d8cfbd" stroke-width="1" opacity="0.8"/><text x="490.57" y="1228" class="axis" text-anchor="middle">857.1k</text><line x1="625.43" y1="190" x2="625.43" y2="1202" stroke="#d8cfbd" stroke-width="1" opacity="0.8"/><text x="625.43" y="1228" class="axis" text-anchor="middle">1.14M</text><line x1="760.29" y1="190" x2="760.29" y2="1202" stroke="#d8cfbd" stroke-width="1" opacity="0.8"/><text x="760.29" y="1228" class="axis" text-anchor="middle">1.43M</text><line x1="895.14" y1="190" x2="895.14" y2="1202" stroke="#d8cfbd" stroke-width="1" opacity="0.8"/><text x="895.14" y="1228" class="axis" text-anchor="middle">1.71M</text><line x1="1030.00" y1="190" x2="1030.00" y2="1202" stroke="#d8cfbd" stroke-width="1" opacity="0.8"/><text x="1030.00" y="1228" class="axis" text-anchor="middle">2M</text><line x1="86" y1="1202.00" x2="1030" y2="1202.00" stroke="#d8cfbd" stroke-width="1" opacity="0.8"/><text x="68" y="1206.00" class="axis" text-anchor="end">0s</text><line x1="86" y1="1033.33" x2="1030" y2="1033.33" stroke="#d8cfbd" stroke-width="1" opacity="0.8"/><text x="68" y="1037.33" class="axis" text-anchor="end">50s</text><line x1="86" y1="864.67" x2="1030" y2="864.67" stroke="#d8cfbd" stroke-width="1" opacity="0.8"/><text x="68" y="868.67" class="axis" text-anchor="end">1m 40s</text><line x1="86" y1="696.00" x2="1030" y2="696.00" stroke="#d8cfbd" stroke-width="1" opacity="0.8"/><text x="68" y="700.00" class="axis" text-anchor="end">2m 30s</text><line x1="86" y1="527.33" x2="1030" y2="527.33" stroke="#d8cfbd" stroke-width="1" opacity="0.8"/><text x="68" y="531.33" class="axis" text-anchor="end">3m 20s</text><line x1="86" y1="358.67" x2="1030" y2="358.67" stroke="#d8cfbd" stroke-width="1" opacity="0.8"/><text x="68" y="362.67" class="axis" text-anchor="end">4m 10s</text><line x1="86" y1="190.00" x2="1030" y2="190.00" stroke="#d8cfbd" stroke-width="1" opacity="0.8"/><text x="68" y="194.00" class="axis" text-anchor="end">5m 00s</text><line x1="86" y1="1202" x2="1030" y2="1202" stroke="#17202a" stroke-width="2"/><line x1="86" y1="190" x2="86" y2="1202" stroke="#17202a" stroke-width="2"/><text x="558.00" y="1256" class="label" text-anchor="middle">Live session input tokens</text><text x="28" y="696.00" class="label" text-anchor="middle" transform="rotate(-90 28 696.00)">Time to valid outcome</text><text x="86" y="1280" class="small">Main field caps at 2M live session input tokens and 5m 00s to keep the dense cluster legible.</text><line x1="244.33" y1="190" x2="244.33" y2="1202" stroke="#b64035" stroke-width="1.8" stroke-dasharray="7 6" opacity="0.8"/><line x1="165.67" y1="190" x2="165.67" y2="1202" stroke="#007f8c" stroke-width="1.8" stroke-dasharray="7 6" opacity="0.8"/><line x1="86" y1="906.34" x2="1030" y2="906.34" stroke="#b64035" stroke-width="1.8" stroke-dasharray="7 6" opacity="0.8"/><line x1="86" y1="1008.74" x2="1030" y2="1008.74" stroke="#007f8c" stroke-width="1.8" stroke-dasharray="7 6" opacity="0.8"/><line x1="244.33" y1="965.79" x2="165.67" y2="1042.73" stroke="#1d7f63" stroke-width="2.4" opacity="0.68"/><circle cx="244.33" cy="965.79" r="5.3" fill="#b64035" stroke="#fffdfa" stroke-width="1.4"/><polygon points="165.67,1036.53 171.87,1042.73 165.67,1048.93 159.47,1042.73" fill="#007f8c" stroke="#fffdfa" stroke-width="1.4"/><line x1="86.00" y1="1137.88" x2="86.00" y2="1134.03" stroke="#b7791f" stroke-width="2.4" opacity="0.68"/><circle cx="86.00" cy="1137.88" r="5.3" fill="#b64035" stroke="#fffdfa" stroke-width="1.4"/><polygon points="86.00,1127.83 92.20,1134.03 86.00,1140.23 79.80,1134.03" fill="#007f8c" stroke="#fffdfa" stroke-width="1.4"/><line x1="116.36" y1="1096.14" x2="97.47" y2="1150.38" stroke="#1d7f63" stroke-width="2.4" opacity="0.68"/><circle cx="116.36" cy="1096.14" r="5.3" fill="#b64035" stroke="#fffdfa" stroke-width="1.4"/><polygon points="97.47,1144.18 103.67,1150.38 97.47,1156.58 91.27,1150.38" fill="#007f8c" stroke="#fffdfa" stroke-width="1.4"/><line x1="390.16" y1="786.63" x2="116.51" y2="1063.51" stroke="#1d7f63" stroke-width="2.4" opacity="0.68"/><circle cx="390.16" cy="786.63" r="5.3" fill="#b64035" stroke="#fffdfa" stroke-width="1.4"/><polygon points="116.51,1057.31 122.71,1063.51 116.51,1069.71 110.31,1063.51" fill="#007f8c" stroke="#fffdfa" stroke-width="1.4"/><line x1="568.57" y1="425.89" x2="498.24" y2="578.20" stroke="#1d7f63" stroke-width="2.4" opacity="0.68"/><circle cx="568.57" cy="425.89" r="5.3" fill="#b64035" stroke="#fffdfa" stroke-width="1.4"/><polygon points="498.24,572.00 504.44,578.20 498.24,584.40 492.04,578.20" fill="#007f8c" stroke="#fffdfa" stroke-width="1.4"/><line x1="638.41" y1="655.76" x2="664.97" y2="627.49" stroke="#b42318" stroke-width="2.4" opacity="0.68"/><circle cx="638.41" cy="655.76" r="5.3" fill="#b64035" stroke="#fffdfa" stroke-width="1.4"/><polygon points="664.97,621.29 671.17,627.49 664.97,633.69 658.77,627.49" fill="#007f8c" stroke="#fffdfa" stroke-width="1.4"/><line x1="160.17" y1="923.88" x2="343.28" y2="755.57" stroke="#b42318" stroke-width="2.4" opacity="0.68"/><circle cx="160.17" cy="923.88" r="5.3" fill="#b64035" stroke="#fffdfa" stroke-width="1.4"/><polygon points="343.28,749.37 349.48,755.57 343.28,761.77 337.08,755.57" fill="#007f8c" stroke="#fffdfa" stroke-width="1.4"/><line x1="416.61" y1="561.88" x2="338.32" y2="461.04" stroke="#b7791f" stroke-width="2.4" opacity="0.68"/><circle cx="416.61" cy="561.88" r="5.3" fill="#b64035" stroke="#fffdfa" stroke-width="1.4"/><polygon points="338.32,454.84 344.52,461.04 338.32,467.24 332.12,461.04" fill="#007f8c" stroke="#fffdfa" stroke-width="1.4"/><line x1="238.42" y1="843.27" x2="309.16" y2="857.59" stroke="#b7791f" stroke-width="2.4" opacity="0.68"/><circle cx="238.42" cy="843.27" r="5.3" fill="#b64035" stroke="#fffdfa" stroke-width="1.4"/><polygon points="309.16,851.39 315.36,857.59 309.16,863.79 302.96,857.59" fill="#007f8c" stroke="#fffdfa" stroke-width="1.4"/><line x1="964.31" y1="261.76" x2="443.80" y2="564.49" stroke="#1d7f63" stroke-width="2.4" opacity="0.68"/><circle cx="964.31" cy="261.76" r="5.3" fill="#b64035" stroke="#fffdfa" stroke-width="1.4"/><polygon points="443.80,558.29 450.00,564.49 443.80,570.69 437.60,564.49" fill="#007f8c" stroke="#fffdfa" stroke-width="1.4"/><line x1="298.80" y1="850.50" x2="801.25" y2="424.68" stroke="#b42318" stroke-width="2.4" opacity="0.68"/><circle cx="298.80" cy="850.50" r="5.3" fill="#b64035" stroke="#fffdfa" stroke-width="1.4"/><polygon points="801.25,418.48 807.45,424.68 801.25,430.88 795.05,424.68" fill="#007f8c" stroke="#fffdfa" stroke-width="1.4"/><line x1="285.33" y1="904.51" x2="238.97" y2="850.18" stroke="#b7791f" stroke-width="2.4" opacity="0.68"/><circle cx="285.33" cy="904.51" r="5.3" fill="#b64035" stroke="#fffdfa" stroke-width="1.4"/><polygon points="238.97,843.98 245.17,850.18 238.97,856.38 232.77,850.18" fill="#007f8c" stroke="#fffdfa" stroke-width="1.4"/><line x1="154.33" y1="953.27" x2="118.58" y2="1061.11" stroke="#1d7f63" stroke-width="2.4" opacity="0.68"/><circle cx="154.33" cy="953.27" r="5.3" fill="#b64035" stroke="#fffdfa" stroke-width="1.4"/><polygon points="118.58,1054.91 124.78,1061.11 118.58,1067.31 112.38,1061.11" fill="#007f8c" stroke="#fffdfa" stroke-width="1.4"/><line x1="834.58" y1="383.02" x2="562.34" y2="568.66" stroke="#1d7f63" stroke-width="2.4" opacity="0.68"/><circle cx="834.58" cy="383.02" r="5.3" fill="#b64035" stroke="#fffdfa" stroke-width="1.4"/><polygon points="562.34,562.46 568.54,568.66 562.34,574.86 556.14,568.66" fill="#007f8c" stroke="#fffdfa" stroke-width="1.4"/><line x1="166.62" y1="1015.39" x2="117.08" y2="1065.61" stroke="#1d7f63" stroke-width="2.4" opacity="0.68"/><circle cx="166.62" cy="1015.39" r="5.3" fill="#b64035" stroke="#fffdfa" stroke-width="1.4"/><polygon points="117.08,1059.41 123.28,1065.61 117.08,1071.81 110.88,1065.61" fill="#007f8c" stroke="#fffdfa" stroke-width="1.4"/><line x1="339.70" y1="708.27" x2="120.64" y2="1062.04" stroke="#1d7f63" stroke-width="2.4" opacity="0.68"/><circle cx="339.70" cy="708.27" r="5.3" fill="#b64035" stroke="#fffdfa" stroke-width="1.4"/><polygon points="120.64,1055.84 126.84,1062.04 120.64,1068.24 114.44,1062.04" fill="#007f8c" stroke="#fffdfa" stroke-width="1.4"/><line x1="95.45" y1="1124.26" x2="101.12" y2="1119.77" stroke="#b42318" stroke-width="2.4" opacity="0.68"/><circle cx="95.45" cy="1124.26" r="5.3" fill="#b64035" stroke="#fffdfa" stroke-width="1.4"/><polygon points="101.12,1113.57 107.32,1119.77 101.12,1125.97 94.92,1119.77" fill="#007f8c" stroke="#fffdfa" stroke-width="1.4"/><line x1="132.76" y1="1000.76" x2="140.11" y2="1004.34" stroke="#b7791f" stroke-width="2.4" opacity="0.68"/><circle cx="132.76" cy="1000.76" r="5.3" fill="#b64035" stroke="#fffdfa" stroke-width="1.4"/><polygon points="140.11,998.14 146.31,1004.34 140.11,1010.54 133.91,1004.34" fill="#007f8c" stroke="#fffdfa" stroke-width="1.4"/><line x1="421.87" y1="697.24" x2="505.92" y2="667.60" stroke="#b42318" stroke-width="2.4" opacity="0.68"/><circle cx="421.87" cy="697.24" r="5.3" fill="#b64035" stroke="#fffdfa" stroke-width="1.4"/><polygon points="505.92,661.40 512.12,667.60 505.92,673.80 499.72,667.60" fill="#007f8c" stroke="#fffdfa" stroke-width="1.4"/><line x1="360.43" y1="906.28" x2="648.53" y2="550.75" stroke="#b42318" stroke-width="2.4" opacity="0.68"/><circle cx="360.43" cy="906.28" r="5.3" fill="#b64035" stroke="#fffdfa" stroke-width="1.4"/><polygon points="648.53,544.55 654.73,550.75 648.53,556.95 642.33,550.75" fill="#007f8c" stroke="#fffdfa" stroke-width="1.4"/><line x1="287.71" y1="906.34" x2="95.03" y2="1152.00" stroke="#1d7f63" stroke-width="2.4" opacity="0.68"/><circle cx="287.71" cy="906.34" r="5.3" fill="#b64035" stroke="#fffdfa" stroke-width="1.4"/><polygon points="95.03,1145.80 101.23,1152.00 95.03,1158.20 88.83,1152.00" fill="#007f8c" stroke="#fffdfa" stroke-width="1.4"/><line x1="146.58" y1="989.37" x2="104.76" y2="1127.64" stroke="#1d7f63" stroke-width="2.4" opacity="0.68"/><circle cx="146.58" cy="989.37" r="5.3" fill="#b64035" stroke="#fffdfa" stroke-width="1.4"/><polygon points="104.76,1121.44 110.96,1127.64 104.76,1133.84 98.56,1127.64" fill="#007f8c" stroke="#fffdfa" stroke-width="1.4"/><line x1="433.67" y1="673.46" x2="95.07" y2="1145.62" stroke="#1d7f63" stroke-width="2.4" opacity="0.68"/><circle cx="433.67" cy="673.46" r="5.3" fill="#b64035" stroke="#fffdfa" stroke-width="1.4"/><polygon points="95.07,1139.42 101.27,1145.62 95.07,1151.82 88.87,1145.62" fill="#007f8c" stroke="#fffdfa" stroke-width="1.4"/><line x1="917.76" y1="348.85" x2="601.57" y2="398.15" stroke="#1d7f63" stroke-width="2.4" opacity="0.68"/><circle cx="917.76" cy="348.85" r="5.3" fill="#b64035" stroke="#fffdfa" stroke-width="1.4"/><polygon points="601.57,391.95 607.77,398.15 601.57,404.35 595.37,398.15" fill="#007f8c" stroke="#fffdfa" stroke-width="1.4"/><line x1="596.09" y1="437.12" x2="286.27" y2="865.47" stroke="#1d7f63" stroke-width="2.4" opacity="0.68"/><circle cx="596.09" cy="437.12" r="5.3" fill="#b64035" stroke="#fffdfa" stroke-width="1.4"/><polygon points="286.27,859.27 292.47,865.47 286.27,871.67 280.07,865.47" fill="#007f8c" stroke="#fffdfa" stroke-width="1.4"/><line x1="273.90" y1="963.40" x2="123.04" y2="1043.14" stroke="#1d7f63" stroke-width="2.4" opacity="0.68"/><circle cx="273.90" cy="963.40" r="5.3" fill="#b64035" stroke="#fffdfa" stroke-width="1.4"/><polygon points="123.04,1036.94 129.24,1043.14 123.04,1049.34 116.84,1043.14" fill="#007f8c" stroke="#fffdfa" stroke-width="1.4"/><line x1="105.96" y1="1078.04" x2="121.62" y2="1080.55" stroke="#b7791f" stroke-width="2.4" opacity="0.68"/><circle cx="105.96" cy="1078.04" r="5.3" fill="#b64035" stroke="#fffdfa" stroke-width="1.4"/><polygon points="121.62,1074.35 127.82,1080.55 121.62,1086.75 115.42,1080.55" fill="#007f8c" stroke="#fffdfa" stroke-width="1.4"/><line x1="107.74" y1="1097.56" x2="108.40" y2="1095.39" stroke="#b42318" stroke-width="2.4" opacity="0.68"/><circle cx="107.74" cy="1097.56" r="5.3" fill="#b64035" stroke="#fffdfa" stroke-width="1.4"/><polygon points="108.40,1089.19 114.60,1095.39 108.40,1101.59 102.20,1095.39" fill="#007f8c" stroke="#fffdfa" stroke-width="1.4"/><line x1="209.47" y1="847.68" x2="221.53" y2="808.57" stroke="#b42318" stroke-width="2.4" opacity="0.68"/><circle cx="209.47" cy="847.68" r="5.3" fill="#b64035" stroke="#fffdfa" stroke-width="1.4"/><polygon points="221.53,802.37 227.73,808.57 221.53,814.77 215.33,808.57" fill="#007f8c" stroke="#fffdfa" stroke-width="1.4"/><line x1="124.52" y1="1042.60" x2="142.98" y2="1008.74" stroke="#b42318" stroke-width="2.4" opacity="0.68"/><circle cx="124.52" cy="1042.60" r="5.3" fill="#b64035" stroke="#fffdfa" stroke-width="1.4"/><polygon points="142.98,1002.54 149.18,1008.74 142.98,1014.94 136.78,1008.74" fill="#007f8c" stroke="#fffdfa" stroke-width="1.4"/><line x1="126.61" y1="1040.50" x2="95.06" y2="1147.09" stroke="#1d7f63" stroke-width="2.4" opacity="0.68"/><circle cx="126.61" cy="1040.50" r="5.3" fill="#b64035" stroke="#fffdfa" stroke-width="1.4"/><polygon points="95.06,1140.89 101.26,1147.09 95.06,1153.29 88.86,1147.09" fill="#007f8c" stroke="#fffdfa" stroke-width="1.4"/><line x1="171.76" y1="948.38" x2="466.37" y2="653.50" stroke="#b42318" stroke-width="2.4" opacity="0.68"/><circle cx="171.76" cy="948.38" r="5.3" fill="#b64035" stroke="#fffdfa" stroke-width="1.4"/><polygon points="466.37,647.30 472.57,653.50 466.37,659.70 460.17,653.50" fill="#007f8c" stroke="#fffdfa" stroke-width="1.4"/><line x1="102.36" y1="1110.74" x2="174.01" y2="1025.13" stroke="#b42318" stroke-width="2.4" opacity="0.68"/><circle cx="102.36" cy="1110.74" r="5.3" fill="#b64035" stroke="#fffdfa" stroke-width="1.4"/><polygon points="174.01,1018.93 180.21,1025.13 174.01,1031.33 167.81,1025.13" fill="#007f8c" stroke="#fffdfa" stroke-width="1.4"/><line x1="149.76" y1="1011.89" x2="126.55" y2="1036.82" stroke="#1d7f63" stroke-width="2.4" opacity="0.68"/><circle cx="149.76" cy="1011.89" r="5.3" fill="#b64035" stroke="#fffdfa" stroke-width="1.4"/><polygon points="126.55,1030.62 132.75,1036.82 126.55,1043.02 120.35,1036.82" fill="#007f8c" stroke="#fffdfa" stroke-width="1.4"/><line x1="132.04" y1="1018.28" x2="126.90" y2="1018.33" stroke="#1d7f63" stroke-width="2.4" opacity="0.68"/><circle cx="132.04" cy="1018.28" r="5.3" fill="#b64035" stroke="#fffdfa" stroke-width="1.4"/><polygon points="126.90,1012.13 133.10,1018.33 126.90,1024.53 120.70,1018.33" fill="#007f8c" stroke="#fffdfa" stroke-width="1.4"/><rect x="1060" y="190" width="436" height="230" rx="22" fill="#f6f1e7" stroke="#d8cfbd" stroke-width="1"/><text x="1088" y="224" class="value">Median tradeoff</text><line x1="1084" y1="244" x2="1472" y2="244" stroke="#d8cfbd" stroke-width="1"/><text x="1088" y="274" class="small">Live session input</text><text x="1088" y="312" class="value" fill="#1d7f63">-50%</text><text x="1464" y="312" class="small" text-anchor="end">off 335.5k -&gt; on 168.8k</text><line x1="1084" y1="330" x2="1472" y2="330" stroke="#d8cfbd" stroke-width="1"/><text x="1088" y="360" class="small">Time to valid outcome</text><text x="1088" y="398" class="value" fill="#1d7f63">-35% (-30s)</text><text x="1464" y="398" class="small" text-anchor="end">off 1m 28s -&gt; on 57s</text><rect x="1060" y="438" width="436" height="176" rx="22" fill="#f6f1e7" stroke="#d8cfbd" stroke-width="1"/><text x="1088" y="468" class="value">How to read</text><text x="1088" y="496" class="label">Each line links the same benchmark</text><text x="1088" y="516" class="label">scenario in both modes.</text><text x="1088" y="536" class="label">Read left/down as better.</text><text x="1088" y="556" class="label">The main field caps at 2M tokens and</text><text x="1088" y="576" class="label">5m 00s.</text><rect x="1060" y="632" width="436" height="194" rx="22" fill="#f6f1e7" stroke="#d8cfbd" stroke-width="1"/><text x="1088" y="662" class="value">Long-tail spotlight</text><text x="1088" y="686" class="label">2 scenarios sit outside the focus</text><text x="1088" y="706" class="label">window.</text><rect x="1084" y="722" width="388" height="34" rx="10" fill="#fffdfa" stroke="#d8cfbd" stroke-width="1"/><text x="1098" y="742" class="label">Benchmark component gover...</text><text x="1456" y="742" class="small" text-anchor="end">peak 8m 58s | 2.99M tok</text><rect x="1084" y="756" width="388" height="34" rx="10" fill="#fffdfa" stroke="#d8cfbd" stroke-width="1"/><text x="1098" y="776" class="label">Compass brief freshness s...</text><text x="1456" y="776" class="small" text-anchor="end">peak 6m 05s | 2.21M tok</text><rect x="1060" y="844" width="436" height="328" rx="22" fill="#f6f1e7" stroke="#d8cfbd" stroke-width="1"/><text x="1088" y="876" class="value">Marks and signals</text><circle cx="1098" cy="900" r="5.5" fill="#b64035"/><text x="1116" y="905" class="small">odylith_off / raw host CLI</text><polygon points="1098.00,917.80 1104.20,924.00 1098.00,930.20 1091.80,924.00" fill="#007f8c"/><text x="1116" y="929" class="small">Odylith on</text><line x1="1092" y1="948" x2="1110" y2="948" stroke="#17202a" stroke-width="2.3"/><text x="1116" y="953" class="small">One connecting line = one</text><text x="1116" y="971" class="small">scenario across both modes</text><line x1="1092" y1="990" x2="1110" y2="990" stroke="#1d7f63" stroke-width="2.5"/><text x="1116" y="995" class="small">Odylith on wins on both time to</text><text x="1116" y="1013" class="small">valid outcome and live session</text><text x="1116" y="1031" class="small">input</text><line x1="1092" y1="1050" x2="1110" y2="1050" stroke="#b7791f" stroke-width="2.5"/><text x="1116" y="1055" class="small">Split tradeoff: one improves</text><text x="1116" y="1073" class="small">while the other worsens</text><line x1="1092" y1="1092" x2="1110" y2="1092" stroke="#b42318" stroke-width="2.5"/><text x="1116" y="1097" class="small">odylith_off / raw host CLI wins</text><text x="1116" y="1115" class="small">on both time to valid outcome</text><text x="1116" y="1133" class="small">and live session input</text><text x="1088" y="1214" class="small">Report 926bfeab4e887ade |</text><text x="1088" y="1230" class="small">2026-04-05T02:51:01Z | 37 scenarios | Live</text><text x="1088" y="1246" class="small">Benchmark | conservative_multi_profile</text><text x="1088" y="1262" class="small">(warm, cold)</text><text x="1088" y="1278" class="small">Visual pair: odylith_on vs raw_agent_baseline</text><text x="1088" y="1294" class="small">Source: latest.v1.json</text></svg>