<svg xmlns="http://www.w3.org/2000/svg" width="1600" height="1368" viewBox="0 0 1600 1368" role="img" aria-label="Odylith benchmark quality frontier"><title>Odylith benchmark quality frontier</title><rect x="0" y="0" width="1600" height="1368" rx="24" fill="#f6f1e7"/>
    <style>
      text { fill: #17202a; font-family: ui-sans-serif, system-ui, -apple-system, BlinkMacSystemFont, "Segoe UI", sans-serif; }
      .title { font-size: 30px; font-weight: 700; }
      .subtitle { font-size: 15px; fill: #5f6b76; }
      .label { font-size: 14px; fill: #5f6b76; }
      .small { font-size: 12px; fill: #5f6b76; }
      .value { font-size: 20px; font-weight: 700; }
      .metric { font-size: 24px; font-weight: 700; }
      .chip { font-size: 12px; font-weight: 700; }
    </style>
    <rect x="44" y="40" width="1512" height="1288" rx="28" fill="#fffdfa" stroke="#d8cfbd" stroke-width="1.5"/><text x="86" y="86" class="title">Live Benchmark Quality Frontier: grounding recall vs time to valid outcome</text><text x="86" y="112" class="subtitle">Each line connects the same benchmark scenario with Odylith off (red) and Odylith on (teal). Right is better and</text><text x="86" y="130" class="subtitle">lower time to valid outcome is better.</text><text x="86" y="156" class="small">Static chart: full recall range | all 37 published scenarios in frame</text><text x="478" y="156" class="small" fill="#1d7f63">| all 60 points stay naturally visible on observed paired-time spread</text><rect x="86" y="190" width="944" height="998" rx="24" fill="#faf7ef" stroke="#d8cfbd" stroke-width="1"/><line x1="86.00" y1="190" x2="86.00" y2="1188" stroke="#d8cfbd" stroke-width="1" opacity="0.8"/><text x="86.00" y="1214" class="axis" text-anchor="middle">0.00</text><line x1="322.00" y1="190" x2="322.00" y2="1188" stroke="#d8cfbd" stroke-width="1" opacity="0.8"/><text x="322.00" y="1214" class="axis" text-anchor="middle">0.25</text><line x1="558.00" y1="190" x2="558.00" y2="1188" stroke="#d8cfbd" stroke-width="1" opacity="0.8"/><text x="558.00" y="1214" class="axis" text-anchor="middle">0.50</text><line x1="794.00" y1="190" x2="794.00" y2="1188" stroke="#d8cfbd" stroke-width="1" opacity="0.8"/><text x="794.00" y="1214" class="axis" text-anchor="middle">0.75</text><line x1="1030.00" y1="190" x2="1030.00" y2="1188" stroke="#d8cfbd" stroke-width="1" opacity="0.8"/><text x="1030.00" y="1214" class="axis" text-anchor="middle">1.00</text><line x1="86" y1="1188.00" x2="1030" y2="1188.00" stroke="#d8cfbd" stroke-width="1" opacity="0.8"/><text x="68" y="1192.00" class="axis" text-anchor="end">0s</text><line x1="86" y1="1021.67" x2="1030" y2="1021.67" stroke="#d8cfbd" stroke-width="1" opacity="0.8"/><text x="68" y="1025.67" class="axis" text-anchor="end">50s</text><line x1="86" y1="855.33" x2="1030" y2="855.33" stroke="#d8cfbd" stroke-width="1" opacity="0.8"/><text x="68" y="859.33" class="axis" text-anchor="end">1m 40s</text><line x1="86" y1="689.00" x2="1030" y2="689.00" stroke="#d8cfbd" stroke-width="1" opacity="0.8"/><text x="68" y="693.00" class="axis" text-anchor="end">2m 30s</text><line x1="86" y1="522.67" x2="1030" y2="522.67" stroke="#d8cfbd" stroke-width="1" opacity="0.8"/><text x="68" y="526.67" class="axis" text-anchor="end">3m 20s</text><line x1="86" y1="356.33" x2="1030" y2="356.33" stroke="#d8cfbd" stroke-width="1" opacity="0.8"/><text x="68" y="360.33" class="axis" text-anchor="end">4m 10s</text><line x1="86" y1="190.00" x2="1030" y2="190.00" stroke="#d8cfbd" stroke-width="1" opacity="0.8"/><text x="68" y="194.00" class="axis" text-anchor="end">5m 00s</text><line x1="86" y1="1188" x2="1030" y2="1188" stroke="#17202a" stroke-width="2"/><line x1="86" y1="190" x2="86" y2="1188" stroke="#17202a" stroke-width="2"/><text x="558.00" y="1242" class="label" text-anchor="middle">Grounding recall</text><text x="28" y="689.00" class="label" text-anchor="middle" transform="rotate(-90 28 689.00)">Time to valid outcome</text><text x="86" y="1266" class="small">All published scenario pairs stay in frame without synthetic spreading because time to valid outcome provides natural point separation.</text><line x1="872.35" y1="190" x2="872.35" y2="1188" stroke="#b64035" stroke-width="1.8" stroke-dasharray="7 6" opacity="0.8"/><line x1="1030.00" y1="190" x2="1030.00" y2="1188" stroke="#007f8c" stroke-width="1.8" stroke-dasharray="7 6" opacity="0.8"/><line x1="86" y1="963.49" x2="1030" y2="963.49" stroke="#b64035" stroke-width="1.8" stroke-dasharray="7 6" opacity="0.8"/><line x1="86" y1="1004.83" x2="1030" y2="1004.83" stroke="#007f8c" stroke-width="1.8" stroke-dasharray="7 6" opacity="0.8"/><line x1="652.40" y1="1038.56" x2="1030.00" y2="993.66" stroke="#b7791f" stroke-width="2.4" opacity="0.68"/><circle cx="652.40" cy="1038.56" r="5.3" fill="#b64035" stroke="#fffdfa" stroke-width="1.4"/><polygon points="1030.00,987.46 1036.20,993.66 1030.00,999.86 1023.80,993.66" fill="#007f8c" stroke="#fffdfa" stroke-width="1.4"/><line x1="86.00" y1="1084.25" x2="1030.00" y2="1080.55" stroke="#b7791f" stroke-width="2.4" opacity="0.68"/><circle cx="86.00" cy="1084.25" r="5.3" fill="#b64035" stroke="#fffdfa" stroke-width="1.4"/><polygon points="1030.00,1074.35 1036.20,1080.55 1030.00,1086.75 1023.80,1080.55" fill="#007f8c" stroke="#fffdfa" stroke-width="1.4"/><line x1="1030.00" y1="1002.17" x2="1030.00" y2="1051.89" stroke="#1d7f63" stroke-width="2.4" opacity="0.68"/><circle cx="1030.00" cy="1002.17" r="5.3" fill="#b64035" stroke="#fffdfa" stroke-width="1.4"/><polygon points="1030.00,1045.69 1036.20,1051.89 1030.00,1058.09 1023.80,1051.89" fill="#007f8c" stroke="#fffdfa" stroke-width="1.4"/><line x1="676.00" y1="875.64" x2="912.00" y2="1056.12" stroke="#1d7f63" stroke-width="2.4" opacity="0.68"/><circle cx="676.00" cy="875.64" r="5.3" fill="#b64035" stroke="#fffdfa" stroke-width="1.4"/><polygon points="912.00,1049.92 918.20,1056.12 912.00,1062.32 905.80,1056.12" fill="#007f8c" stroke="#fffdfa" stroke-width="1.4"/><line x1="652.40" y1="842.94" x2="1030.00" y2="1018.41" stroke="#1d7f63" stroke-width="2.4" opacity="0.68"/><circle cx="652.40" cy="842.94" r="5.3" fill="#b64035" stroke="#fffdfa" stroke-width="1.4"/><polygon points="1030.00,1012.21 1036.20,1018.41 1030.00,1024.61 1023.80,1018.41" fill="#007f8c" stroke="#fffdfa" stroke-width="1.4"/><line x1="715.65" y1="914.67" x2="1030.00" y2="500.08" stroke="#b7791f" stroke-width="2.4" opacity="0.68"/><circle cx="715.65" cy="914.67" r="5.3" fill="#b64035" stroke="#fffdfa" stroke-width="1.4"/><polygon points="1030.00,493.88 1036.20,500.08 1030.00,506.28 1023.80,500.08" fill="#007f8c" stroke="#fffdfa" stroke-width="1.4"/><line x1="872.35" y1="768.51" x2="1030.00" y2="1002.47" stroke="#1d7f63" stroke-width="2.4" opacity="0.68"/><circle cx="872.35" cy="768.51" r="5.3" fill="#b64035" stroke="#fffdfa" stroke-width="1.4"/><polygon points="1030.00,996.27 1036.20,1002.47 1030.00,1008.67 1023.80,1002.47" fill="#007f8c" stroke="#fffdfa" stroke-width="1.4"/><line x1="558.00" y1="858.26" x2="1030.00" y2="817.26" stroke="#b7791f" stroke-width="2.4" opacity="0.68"/><circle cx="558.00" cy="858.26" r="5.3" fill="#b64035" stroke="#fffdfa" stroke-width="1.4"/><polygon points="1030.00,811.06 1036.20,817.26 1030.00,823.46 1023.80,817.26" fill="#007f8c" stroke="#fffdfa" stroke-width="1.4"/><line x1="715.65" y1="807.14" x2="1030.00" y2="298.76" stroke="#b7791f" stroke-width="2.4" opacity="0.68"/><circle cx="715.65" cy="807.14" r="5.3" fill="#b64035" stroke="#fffdfa" stroke-width="1.4"/><polygon points="1030.00,292.56 1036.20,298.76 1030.00,304.96 1023.80,298.76" fill="#007f8c" stroke="#fffdfa" stroke-width="1.4"/><line x1="841.20" y1="808.83" x2="1030.00" y2="834.08" stroke="#1d7f63" stroke-width="2.4" opacity="0.68"/><circle cx="841.20" cy="808.83" r="5.3" fill="#b64035" stroke="#fffdfa" stroke-width="1.4"/><polygon points="1030.00,827.88 1036.20,834.08 1030.00,840.28 1023.80,834.08" fill="#007f8c" stroke="#fffdfa" stroke-width="1.4"/><line x1="652.40" y1="670.33" x2="1030.00" y2="719.17" stroke="#1d7f63" stroke-width="2.4" opacity="0.68"/><circle cx="652.40" cy="670.33" r="5.3" fill="#b64035" stroke="#fffdfa" stroke-width="1.4"/><polygon points="1030.00,712.97 1036.20,719.17 1030.00,725.37 1023.80,719.17" fill="#007f8c" stroke="#fffdfa" stroke-width="1.4"/><line x1="1030.00" y1="1017.94" x2="1030.00" y2="1047.36" stroke="#1d7f63" stroke-width="2.4" opacity="0.68"/><circle cx="1030.00" cy="1017.94" r="5.3" fill="#b64035" stroke="#fffdfa" stroke-width="1.4"/><polygon points="1030.00,1041.16 1036.20,1047.36 1030.00,1053.56 1023.80,1047.36" fill="#007f8c" stroke="#fffdfa" stroke-width="1.4"/><line x1="652.40" y1="663.66" x2="1030.00" y2="1070.17" stroke="#1d7f63" stroke-width="2.4" opacity="0.68"/><circle cx="652.40" cy="663.66" r="5.3" fill="#b64035" stroke="#fffdfa" stroke-width="1.4"/><polygon points="1030.00,1063.97 1036.20,1070.17 1030.00,1076.37 1023.80,1070.17" fill="#007f8c" stroke="#fffdfa" stroke-width="1.4"/><line x1="463.60" y1="887.57" x2="1030.00" y2="1059.12" stroke="#1d7f63" stroke-width="2.4" opacity="0.68"/><circle cx="463.60" cy="887.57" r="5.3" fill="#b64035" stroke="#fffdfa" stroke-width="1.4"/><polygon points="1030.00,1052.92 1036.20,1059.12 1030.00,1065.32 1023.80,1059.12" fill="#007f8c" stroke="#fffdfa" stroke-width="1.4"/><line x1="1030.00" y1="989.66" x2="1030.00" y2="1018.04" stroke="#1d7f63" stroke-width="2.4" opacity="0.68"/><circle cx="1030.00" cy="989.66" r="5.3" fill="#b64035" stroke="#fffdfa" stroke-width="1.4"/><polygon points="1030.00,1011.84 1036.20,1018.04 1030.00,1024.24 1023.80,1018.04" fill="#007f8c" stroke="#fffdfa" stroke-width="1.4"/><line x1="558.00" y1="721.29" x2="1030.00" y2="541.95" stroke="#b7791f" stroke-width="2.4" opacity="0.68"/><circle cx="558.00" cy="721.29" r="5.3" fill="#b64035" stroke="#fffdfa" stroke-width="1.4"/><polygon points="1030.00,535.75 1036.20,541.95 1030.00,548.15 1023.80,541.95" fill="#007f8c" stroke="#fffdfa" stroke-width="1.4"/><line x1="1030.00" y1="1100.37" x2="1030.00" y2="1082.74" stroke="#b7791f" stroke-width="2.4" opacity="0.68"/><circle cx="1030.00" cy="1100.37" r="5.3" fill="#b64035" stroke="#fffdfa" stroke-width="1.4"/><polygon points="1030.00,1076.54 1036.20,1082.74 1030.00,1088.94 1023.80,1082.74" fill="#007f8c" stroke="#fffdfa" stroke-width="1.4"/><line x1="895.01" y1="749.20" x2="1030.00" y2="545.67" stroke="#b7791f" stroke-width="2.4" opacity="0.68"/><circle cx="895.01" cy="749.20" r="5.3" fill="#b64035" stroke="#fffdfa" stroke-width="1.4"/><polygon points="1030.00,539.47 1036.20,545.67 1030.00,551.87 1023.80,545.67" fill="#007f8c" stroke="#fffdfa" stroke-width="1.4"/><line x1="1030.00" y1="1092.06" x2="1030.00" y2="1064.68" stroke="#b7791f" stroke-width="2.4" opacity="0.68"/><circle cx="1030.00" cy="1092.06" r="5.3" fill="#b64035" stroke="#fffdfa" stroke-width="1.4"/><polygon points="1030.00,1058.48 1036.20,1064.68 1030.00,1070.88 1023.80,1064.68" fill="#007f8c" stroke="#fffdfa" stroke-width="1.4"/><line x1="1030.00" y1="970.44" x2="1030.00" y2="966.30" stroke="#b7791f" stroke-width="2.4" opacity="0.68"/><circle cx="1030.00" cy="970.44" r="5.3" fill="#b64035" stroke="#fffdfa" stroke-width="1.4"/><polygon points="1030.00,960.10 1036.20,966.30 1030.00,972.50 1023.80,966.30" fill="#007f8c" stroke="#fffdfa" stroke-width="1.4"/><line x1="652.40" y1="781.16" x2="1030.00" y2="631.30" stroke="#b7791f" stroke-width="2.4" opacity="0.68"/><circle cx="652.40" cy="781.16" r="5.3" fill="#b64035" stroke="#fffdfa" stroke-width="1.4"/><polygon points="1030.00,625.10 1036.20,631.30 1030.00,637.50 1023.80,631.30" fill="#007f8c" stroke="#fffdfa" stroke-width="1.4"/><line x1="558.00" y1="922.58" x2="1030.00" y2="1006.14" stroke="#1d7f63" stroke-width="2.4" opacity="0.68"/><circle cx="558.00" cy="922.58" r="5.3" fill="#b64035" stroke="#fffdfa" stroke-width="1.4"/><polygon points="1030.00,999.94 1036.20,1006.14 1030.00,1012.34 1023.80,1006.14" fill="#007f8c" stroke="#fffdfa" stroke-width="1.4"/><line x1="1030.00" y1="1089.67" x2="1030.00" y2="1135.61" stroke="#1d7f63" stroke-width="2.4" opacity="0.68"/><circle cx="1030.00" cy="1089.67" r="5.3" fill="#b64035" stroke="#fffdfa" stroke-width="1.4"/><polygon points="1030.00,1129.41 1036.20,1135.61 1030.00,1141.81 1023.80,1135.61" fill="#007f8c" stroke="#fffdfa" stroke-width="1.4"/><line x1="1030.00" y1="1061.24" x2="1030.00" y2="1107.43" stroke="#1d7f63" stroke-width="2.4" opacity="0.68"/><circle cx="1030.00" cy="1061.24" r="5.3" fill="#b64035" stroke="#fffdfa" stroke-width="1.4"/><polygon points="1030.00,1101.23 1036.20,1107.43 1030.00,1113.63 1023.80,1107.43" fill="#007f8c" stroke="#fffdfa" stroke-width="1.4"/><line x1="1030.00" y1="923.50" x2="1030.00" y2="1120.92" stroke="#1d7f63" stroke-width="2.4" opacity="0.68"/><circle cx="1030.00" cy="923.50" r="5.3" fill="#b64035" stroke="#fffdfa" stroke-width="1.4"/><polygon points="1030.00,1114.72 1036.20,1120.92 1030.00,1127.12 1023.80,1120.92" fill="#007f8c" stroke="#fffdfa" stroke-width="1.4"/><line x1="1030.00" y1="416.53" x2="1030.00" y2="510.09" stroke="#1d7f63" stroke-width="2.4" opacity="0.68"/><circle cx="1030.00" cy="416.53" r="5.3" fill="#b64035" stroke="#fffdfa" stroke-width="1.4"/><polygon points="1030.00,503.89 1036.20,510.09 1030.00,516.29 1023.80,510.09" fill="#007f8c" stroke="#fffdfa" stroke-width="1.4"/><line x1="872.35" y1="589.01" x2="1030.00" y2="258.85" stroke="#b7791f" stroke-width="2.4" opacity="0.68"/><circle cx="872.35" cy="589.01" r="5.3" fill="#b64035" stroke="#fffdfa" stroke-width="1.4"/><polygon points="1030.00,252.65 1036.20,258.85 1030.00,265.05 1023.80,258.85" fill="#007f8c" stroke="#fffdfa" stroke-width="1.4"/><line x1="1030.00" y1="982.08" x2="1030.00" y2="1004.83" stroke="#1d7f63" stroke-width="2.4" opacity="0.68"/><circle cx="1030.00" cy="982.08" r="5.3" fill="#b64035" stroke="#fffdfa" stroke-width="1.4"/><polygon points="1030.00,998.63 1036.20,1004.83 1030.00,1011.03 1023.80,1004.83" fill="#007f8c" stroke="#fffdfa" stroke-width="1.4"/><line x1="1030.00" y1="1066.75" x2="1030.00" y2="1092.23" stroke="#1d7f63" stroke-width="2.4" opacity="0.68"/><circle cx="1030.00" cy="1066.75" r="5.3" fill="#b64035" stroke="#fffdfa" stroke-width="1.4"/><polygon points="1030.00,1086.03 1036.20,1092.23 1030.00,1098.43 1023.80,1092.23" fill="#007f8c" stroke="#fffdfa" stroke-width="1.4"/><line x1="1030.00" y1="1085.44" x2="1030.00" y2="1040.72" stroke="#b7791f" stroke-width="2.4" opacity="0.68"/><circle cx="1030.00" cy="1085.44" r="5.3" fill="#b64035" stroke="#fffdfa" stroke-width="1.4"/><polygon points="1030.00,1034.52 1036.20,1040.72 1030.00,1046.92 1023.80,1040.72" fill="#007f8c" stroke="#fffdfa" stroke-width="1.4"/><line x1="463.60" y1="963.49" x2="1030.00" y2="938.02" stroke="#b7791f" stroke-width="2.4" opacity="0.68"/><circle cx="463.60" cy="963.49" r="5.3" fill="#b64035" stroke="#fffdfa" stroke-width="1.4"/><polygon points="1030.00,931.82 1036.20,938.02 1030.00,944.22 1023.80,938.02" fill="#007f8c" stroke="#fffdfa" stroke-width="1.4"/><line x1="558.00" y1="1056.08" x2="1030.00" y2="924.00" stroke="#b7791f" stroke-width="2.4" opacity="0.68"/><circle cx="558.00" cy="1056.08" r="5.3" fill="#b64035" stroke="#fffdfa" stroke-width="1.4"/><polygon points="1030.00,917.80 1036.20,924.00 1030.00,930.20 1023.80,924.00" fill="#007f8c" stroke="#fffdfa" stroke-width="1.4"/><line x1="1030.00" y1="1127.47" x2="1030.00" y2="1132.68" stroke="#1d7f63" stroke-width="2.4" opacity="0.68"/><circle cx="1030.00" cy="1127.47" r="5.3" fill="#b64035" stroke="#fffdfa" stroke-width="1.4"/><polygon points="1030.00,1126.48 1036.20,1132.68 1030.00,1138.88 1023.80,1132.68" fill="#007f8c" stroke="#fffdfa" stroke-width="1.4"/><line x1="463.60" y1="883.85" x2="1030.00" y2="810.92" stroke="#b7791f" stroke-width="2.4" opacity="0.68"/><circle cx="463.60" cy="883.85" r="5.3" fill="#b64035" stroke="#fffdfa" stroke-width="1.4"/><polygon points="1030.00,804.72 1036.20,810.92 1030.00,817.12 1023.80,810.92" fill="#007f8c" stroke="#fffdfa" stroke-width="1.4"/><line x1="1030.00" y1="1090.67" x2="1030.00" y2="972.10" stroke="#b7791f" stroke-width="2.4" opacity="0.68"/><circle cx="1030.00" cy="1090.67" r="5.3" fill="#b64035" stroke="#fffdfa" stroke-width="1.4"/><polygon points="1030.00,965.90 1036.20,972.10 1030.00,978.30 1023.80,972.10" fill="#007f8c" stroke="#fffdfa" stroke-width="1.4"/><line x1="1030.00" y1="1031.35" x2="1030.00" y2="1076.26" stroke="#1d7f63" stroke-width="2.4" opacity="0.68"/><circle cx="1030.00" cy="1031.35" r="5.3" fill="#b64035" stroke="#fffdfa" stroke-width="1.4"/><polygon points="1030.00,1070.06 1036.20,1076.26 1030.00,1082.46 1023.80,1076.26" fill="#007f8c" stroke="#fffdfa" stroke-width="1.4"/><line x1="1030.00" y1="1003.91" x2="1030.00" y2="942.66" stroke="#b7791f" stroke-width="2.4" opacity="0.68"/><circle cx="1030.00" cy="1003.91" r="5.3" fill="#b64035" stroke="#fffdfa" stroke-width="1.4"/><polygon points="1030.00,936.46 1036.20,942.66 1030.00,948.86 1023.80,942.66" fill="#007f8c" stroke="#fffdfa" stroke-width="1.4"/><rect x="1060" y="190" width="436" height="230" rx="22" fill="#f6f1e7" stroke="#d8cfbd" stroke-width="1"/><text x="1088" y="224" class="value">Median tradeoff</text><line x1="1084" y1="244" x2="1472" y2="244" stroke="#d8cfbd" stroke-width="1"/><text x="1088" y="274" class="small">Grounding recall</text><text x="1088" y="312" class="value" fill="#1d7f63">+0.167</text><text x="1464" y="312" class="small" text-anchor="end">off 0.833 -> on 1.000</text><line x1="1084" y1="330" x2="1472" y2="330" stroke="#d8cfbd" stroke-width="1"/><text x="1088" y="360" class="small">Time to valid outcome</text><text x="1088" y="398" class="value" fill="#1d7f63">-18% (-12s)</text><text x="1464" y="398" class="small" text-anchor="end">off 1m 07s -&gt; on 55s</text><rect x="1060" y="438" width="436" height="196" rx="22" fill="#f6f1e7" stroke="#d8cfbd" stroke-width="1"/><text x="1088" y="468" class="value">How to read</text><text x="1088" y="496" class="label">Each line links the same benchmark</text><text x="1088" y="516" class="label">scenario in both modes.</text><text x="1088" y="536" class="label">Read right/down as better.</text><text x="1088" y="556" class="label">The main field spans recall 0.00 to</text><text x="1088" y="576" class="label">1.00 and time to valid outcome 0 to 5m</text><text x="1088" y="596" class="label">00s.</text><rect x="1060" y="652" width="436" height="228" rx="22" fill="#f6f1e7" stroke="#d8cfbd" stroke-width="1"/><text x="1088" y="682" class="value">Scenario spotlight</text><text x="1088" y="706" class="label">Largest scenario recall gains per</text><text x="1088" y="726" class="label">added paired-time cost.</text><rect x="1084" y="742" width="388" height="34" rx="10" fill="#fffdfa" stroke="#d8cfbd" stroke-width="1"/><text x="1098" y="762" class="label">Compass brief freshne...</text><text x="1456" y="762" class="small" text-anchor="end">R +0.400 | -2m 02s</text><rect x="1084" y="776" width="388" height="34" rx="10" fill="#fffdfa" stroke="#d8cfbd" stroke-width="1"/><text x="1098" y="796" class="label">Benchmark component g...</text><text x="1456" y="796" class="small" text-anchor="end">R +0.167 | -1m 10s</text><rect x="1084" y="810" width="388" height="34" rx="10" fill="#fffdfa" stroke="#d8cfbd" stroke-width="1"/><text x="1098" y="830" class="label">Session brief exact p...</text><text x="1456" y="830" class="small" text-anchor="end">R +0.000 | -59s</text><rect x="1060" y="898" width="436" height="292" rx="22" fill="#f6f1e7" stroke="#d8cfbd" stroke-width="1"/><text x="1088" y="930" class="value">Marks and signals</text><circle cx="1098" cy="954" r="5.5" fill="#b64035"/><text x="1116" y="959" class="small">Odylith off / raw Codex CLI</text><polygon points="1098.00,971.80 1104.20,978.00 1098.00,984.20 1091.80,978.00" fill="#007f8c"/><text x="1116" y="983" class="small">Odylith on</text><line x1="1092" y1="1002" x2="1110" y2="1002" stroke="#17202a" stroke-width="2.3"/><text x="1116" y="1007" class="small">One connecting line = one</text><text x="1116" y="1025" class="small">scenario across both modes</text><line x1="1092" y1="1044" x2="1110" y2="1044" stroke="#1d7f63" stroke-width="2.5"/><text x="1116" y="1049" class="small">Odylith on improves recall and</text><text x="1116" y="1067" class="small">time to valid outcome</text><line x1="1092" y1="1086" x2="1110" y2="1086" stroke="#b7791f" stroke-width="2.5"/><text x="1116" y="1091" class="small">Split tradeoff or one-axis</text><text x="1116" y="1109" class="small">improvement</text><line x1="1092" y1="1128" x2="1110" y2="1128" stroke="#b42318" stroke-width="2.5"/><text x="1116" y="1133" class="small">Odylith off / raw Codex CLI wins</text><text x="1116" y="1151" class="small">recall and time to valid outcome</text><text x="1088" y="1232" class="small">Report 52aa3f76538cf12f | 2026-04-05T22:51:40Z | 37</text><text x="1088" y="1248" class="small">scenarios | Live Benchmark | warm, cold</text><text x="1088" y="1264" class="small">Visual pair: odylith_on vs raw_agent_baseline</text><text x="1088" y="1280" class="small">Source: latest-proof.v1.json</text></svg>