<svg xmlns="http://www.w3.org/2000/svg" width="1600" height="1490" viewBox="0 0 1600 1490" role="img" aria-label="Odylith benchmark family heatmap"><title>Odylith benchmark family heatmap</title><rect x="0" y="0" width="1600" height="1490" rx="24" fill="#f6f1e7"/>
    <style>
      text { fill: #17202a; font-family: ui-sans-serif, system-ui, -apple-system, BlinkMacSystemFont, "Segoe UI", sans-serif; }
      .title { font-size: 30px; font-weight: 700; }
      .subtitle { font-size: 15px; fill: #5f6b76; }
      .axis { font-size: 14px; fill: #5f6b76; }
      .label { font-size: 13px; fill: #5f6b76; }
      .small { font-size: 12px; fill: #5f6b76; }
      .chip { font-size: 12px; font-weight: 700; }
      .value { font-size: 16px; font-weight: 700; }
      .cell { font-size: 12px; font-weight: 700; text-anchor: middle; dominant-baseline: middle; }
    </style>
    <rect x="44" y="40" width="1512" height="1410" rx="28" fill="#fffdfa" stroke="#d8cfbd" stroke-width="1.5"/><text x="86" y="88" class="title">Live Benchmark Family Heatmap: where Odylith wins</text><text x="86" y="114" class="subtitle">These are published median family deltas from the Live Benchmark for Odylith on versus odylith_off (raw Codex CLI). Families</text><text x="86" y="132" class="subtitle">are ordered by Odylith&#x27;s developer-first benchmark archetypes rather than token cost. Green means Odylith wins that family.</text><text x="86" y="150" class="subtitle">Live session input deltas are shown as compact token deltas and time to valid outcome deltas are shown as humanized durations;</text><text x="86" y="168" class="subtitle">lower values are better for both. Recall and validation favor higher values.</text><rect x="86" y="208" width="1460" height="1148" rx="18" fill="#f6f1e7" stroke="#d8cfbd" stroke-width="1"/><text x="104" y="237.00" class="label" font-weight="700">Archetype</text><text x="312" y="237.00" class="label" font-weight="700">Family</text><text x="697.0" y="232.0" class="label" text-anchor="middle" font-weight="700">Recall</text><text x="847.0" y="232.0" class="label" text-anchor="middle" font-weight="700">Validation</text><text x="987.0" y="232.0" class="label" text-anchor="middle" font-weight="700">Fit</text><text x="1142.0" y="232.0" class="label" text-anchor="middle" font-weight="700">Live session input</text><text x="1336.0" y="232.0" class="label" text-anchor="middle" font-weight="700">Time to valid outcome</text><rect x="86" y="256" width="1460" height="44" fill="#faf5ec"/><text x="104" y="284" class="small">Bug Fixes</text><text x="312" y="284" class="label">Validation Heavy Fix</text><rect x="530" y="266" width="62" height="22" rx="11" fill="#b42318" opacity="0.14"/><text x="561" y="281" class="chip" text-anchor="middle" fill="#b42318">critical</text><rect x="630" y="262" width="134" height="32" rx="10" fill="#378c72" stroke="#d8cfbd" stroke-width="0.5"/><text x="697.00" y="278.00" class="cell">+0.500</text><rect x="780" y="262" width="134" height="32" rx="10" fill="#ece5d8" stroke="#d8cfbd" stroke-width="0.5"/><text x="847.00" y="278.00" class="cell">+0.000</text><rect x="930" y="262" width="114" height="32" rx="10" fill="#ece5d8" stroke="#d8cfbd" stroke-width="0.5"/><text x="987.00" y="278.00" class="cell">+0.000</text><rect x="1060" y="262" width="164" height="32" rx="10" fill="#b0c7b6" stroke="#d8cfbd" stroke-width="0.5"/><text x="1142.00" y="278.00" class="cell">-62,250</text><rect x="1240" y="262" width="192" height="32" rx="10" fill="#b5cab9" stroke="#d8cfbd" stroke-width="0.5"/><text x="1336.00" y="278.00" class="cell">-2.86s</text><rect x="86" y="300" width="1460" height="44" fill="#fffdfa"/><text x="104" y="328" class="small">Bug Fixes</text><text x="312" y="328" class="label">Browser Surface Reliability</text><rect x="630" y="306" width="134" height="32" rx="10" fill="#a3c1ae" stroke="#d8cfbd" stroke-width="0.5"/><text x="697.00" y="322.00" class="cell">+0.084</text><rect x="780" y="306" width="134" height="32" rx="10" fill="#ece5d8" stroke="#d8cfbd" stroke-width="0.5"/><text x="847.00" y="322.00" class="cell">+0.000</text><rect x="930" y="306" width="114" height="32" rx="10" fill="#6ba58f" stroke="#d8cfbd" stroke-width="0.5"/><text x="987.00" y="322.00" class="cell">+0.500</text><rect x="1060" y="306" width="164" height="32" rx="10" fill="#a4c2b0" stroke="#d8cfbd" stroke-width="0.5"/><text x="1142.00" y="322.00" class="cell">-150,901</text><rect x="1240" y="306" width="192" height="32" rx="10" fill="#d49185" stroke="#d8cfbd" stroke-width="0.5"/><text x="1336.00" y="322.00" class="cell">+36s</text><rect x="86" y="344" width="1460" height="44" fill="#faf5ec"/><text x="104" y="372" class="small">Bug Fixes</text><text x="312" y="372" class="label">Cli Contract Regression</text><rect x="630" y="350" width="134" height="32" rx="10" fill="#519880" stroke="#d8cfbd" stroke-width="0.5"/><text x="697.00" y="366.00" class="cell">+0.400</text><rect x="780" y="350" width="134" height="32" rx="10" fill="#ece5d8" stroke="#d8cfbd" stroke-width="0.5"/><text x="847.00" y="366.00" class="cell">+0.000</text><rect x="930" y="350" width="114" height="32" rx="10" fill="#1d7f63" stroke="#d8cfbd" stroke-width="0.5"/><text x="987.00" y="366.00" class="cell">+1.000</text><rect x="1060" y="350" width="164" height="32" rx="10" fill="#dcaea2" stroke="#d8cfbd" stroke-width="0.5"/><text x="1142.00" y="366.00" class="cell">+123,073</text><rect x="1240" y="350" width="192" height="32" rx="10" fill="#a6c2b0" stroke="#d8cfbd" stroke-width="0.5"/><text x="1336.00" y="366.00" class="cell">-15s</text><rect x="86" y="388" width="1460" height="44" fill="#fffdfa"/><line x1="86" y1="388" x2="1546" y2="388" stroke="#d8cfbd" stroke-width="2"/><text x="104" y="416" class="small">Multi-File Features</text><text x="312" y="416" class="label">Cross File Feature</text><rect x="630" y="394" width="134" height="32" rx="10" fill="#ece5d8" stroke="#d8cfbd" stroke-width="0.5"/><text x="697.00" y="410.00" class="cell">+0.000</text><rect x="780" y="394" width="134" height="32" rx="10" fill="#ece5d8" stroke="#d8cfbd" stroke-width="0.5"/><text x="847.00" y="410.00" class="cell">+0.000</text><rect x="930" y="394" width="114" height="32" rx="10" fill="#ece5d8" stroke="#d8cfbd" stroke-width="0.5"/><text x="987.00" y="410.00" class="cell">+0.000</text><rect x="1060" y="394" width="164" height="32" rx="10" fill="#b3c9b8" stroke="#d8cfbd" stroke-width="0.5"/><text x="1142.00" y="410.00" class="cell">-37,545</text><rect x="1240" y="394" width="192" height="32" rx="10" fill="#adc6b5" stroke="#d8cfbd" stroke-width="0.5"/><text x="1336.00" y="410.00" class="cell">-8.53s</text><rect x="86" y="432" width="1460" height="44" fill="#faf5ec"/><text x="104" y="460" class="small">Multi-File Features</text><text x="312" y="460" class="label">Merge Heavy Change</text><rect x="530" y="442" width="62" height="22" rx="11" fill="#b42318" opacity="0.14"/><text x="561" y="457" class="chip" text-anchor="middle" fill="#b42318">critical</text><rect x="630" y="438" width="134" height="32" rx="10" fill="#ece5d8" stroke="#d8cfbd" stroke-width="0.5"/><text x="697.00" y="454.00" class="cell">+0.000</text><rect x="780" y="438" width="134" height="32" rx="10" fill="#ece5d8" stroke="#d8cfbd" stroke-width="0.5"/><text x="847.00" y="454.00" class="cell">+0.000</text><rect x="930" y="438" width="114" height="32" rx="10" fill="#ece5d8" stroke="#d8cfbd" stroke-width="0.5"/><text x="987.00" y="454.00" class="cell">+0.000</text><rect x="1060" y="438" width="164" height="32" rx="10" fill="#e1beb1" stroke="#d8cfbd" stroke-width="0.5"/><text x="1142.00" y="454.00" class="cell">+2,060</text><rect x="1240" y="438" width="192" height="32" rx="10" fill="#deb4a7" stroke="#d8cfbd" stroke-width="0.5"/><text x="1336.00" y="454.00" class="cell">+8.23s</text><rect x="86" y="476" width="1460" height="44" fill="#fffdfa"/><line x1="86" y1="476" x2="1546" y2="476" stroke="#d8cfbd" stroke-width="2"/><text x="104" y="504" class="small">Runtime / Install / Security</text><text x="312" y="504" class="label">Install Upgrade Runtime</text><rect x="530" y="486" width="62" height="22" rx="11" fill="#b42318" opacity="0.14"/><text x="561" y="501" class="chip" text-anchor="middle" fill="#b42318">critical</text><rect x="630" y="482" width="134" height="32" rx="10" fill="#6da690" stroke="#d8cfbd" stroke-width="0.5"/><text x="697.00" y="498.00" class="cell">+0.292</text><rect x="780" y="482" width="134" height="32" rx="10" fill="#1d7f63" stroke="#d8cfbd" stroke-width="0.5"/><text x="847.00" y="498.00" class="cell">+0.500</text><rect x="930" y="482" width="114" height="32" rx="10" fill="#6ba58f" stroke="#d8cfbd" stroke-width="0.5"/><text x="987.00" y="498.00" class="cell">+0.500</text><rect x="1060" y="482" width="164" height="32" rx="10" fill="#c96c60" stroke="#d8cfbd" stroke-width="0.5"/><text x="1142.00" y="498.00" class="cell">+625,116</text><rect x="1240" y="482" width="192" height="32" rx="10" fill="#d49285" stroke="#d8cfbd" stroke-width="0.5"/><text x="1336.00" y="498.00" class="cell">+35s</text><rect x="86" y="520" width="1460" height="44" fill="#faf5ec"/><text x="104" y="548" class="small">Runtime / Install / Security</text><text x="312" y="548" class="label">Agent Activation</text><rect x="630" y="526" width="134" height="32" rx="10" fill="#93b9a6" stroke="#d8cfbd" stroke-width="0.5"/><text x="697.00" y="542.00" class="cell">+0.143</text><rect x="780" y="526" width="134" height="32" rx="10" fill="#ece5d8" stroke="#d8cfbd" stroke-width="0.5"/><text x="847.00" y="542.00" class="cell">+0.000</text><rect x="930" y="526" width="114" height="32" rx="10" fill="#ece5d8" stroke="#d8cfbd" stroke-width="0.5"/><text x="987.00" y="542.00" class="cell">+0.000</text><rect x="1060" y="526" width="164" height="32" rx="10" fill="#d79d91" stroke="#d8cfbd" stroke-width="0.5"/><text x="1142.00" y="542.00" class="cell">+248,999</text><rect x="1240" y="526" width="192" height="32" rx="10" fill="#ca7065" stroke="#d8cfbd" stroke-width="0.5"/><text x="1336.00" y="542.00" class="cell">+1m 01s</text><rect x="86" y="564" width="1460" height="44" fill="#fffdfa"/><text x="104" y="592" class="small">Runtime / Install / Security</text><text x="312" y="592" class="label">Daemon Security</text><rect x="530" y="574" width="62" height="22" rx="11" fill="#b42318" opacity="0.14"/><text x="561" y="589" class="chip" text-anchor="middle" fill="#b42318">critical</text><rect x="630" y="570" width="134" height="32" rx="10" fill="#519880" stroke="#d8cfbd" stroke-width="0.5"/><text x="697.00" y="586.00" class="cell">+0.400</text><rect x="780" y="570" width="134" height="32" rx="10" fill="#ece5d8" stroke="#d8cfbd" stroke-width="0.5"/><text x="847.00" y="586.00" class="cell">+0.000</text><rect x="930" y="570" width="114" height="32" rx="10" fill="#1d7f63" stroke="#d8cfbd" stroke-width="0.5"/><text x="987.00" y="586.00" class="cell">+1.000</text><rect x="1060" y="570" width="164" height="32" rx="10" fill="#63a28b" stroke="#d8cfbd" stroke-width="0.5"/><text x="1142.00" y="586.00" class="cell">-647,100</text><rect x="1240" y="570" width="192" height="32" rx="10" fill="#75aa95" stroke="#d8cfbd" stroke-width="0.5"/><text x="1336.00" y="586.00" class="cell">-53s</text><rect x="86" y="608" width="1460" height="44" fill="#faf5ec"/><text x="104" y="636" class="small">Runtime / Install / Security</text><text x="312" y="636" class="label">Consumer Profile Compatibility</text><rect x="630" y="614" width="134" height="32" rx="10" fill="#1d7f63" stroke="#d8cfbd" stroke-width="0.5"/><text x="697.00" y="630.00" class="cell">+0.600</text><rect x="780" y="614" width="134" height="32" rx="10" fill="#ece5d8" stroke="#d8cfbd" stroke-width="0.5"/><text x="847.00" y="630.00" class="cell">+0.000</text><rect x="930" y="614" width="114" height="32" rx="10" fill="#1d7f63" stroke="#d8cfbd" stroke-width="0.5"/><text x="987.00" y="630.00" class="cell">+1.000</text><rect x="1060" y="614" width="164" height="32" rx="10" fill="#97bba8" stroke="#d8cfbd" stroke-width="0.5"/><text x="1142.00" y="630.00" class="cell">-254,211</text><rect x="1240" y="614" width="192" height="32" rx="10" fill="#77ab96" stroke="#d8cfbd" stroke-width="0.5"/><text x="1336.00" y="630.00" class="cell">-52s</text><rect x="86" y="652" width="1460" height="44" fill="#fffdfa"/><text x="104" y="680" class="small">Runtime / Install / Security</text><text x="312" y="680" class="label">Runtime State Integrity</text><rect x="630" y="658" width="134" height="32" rx="10" fill="#519880" stroke="#d8cfbd" stroke-width="0.5"/><text x="697.00" y="674.00" class="cell">+0.400</text><rect x="780" y="658" width="134" height="32" rx="10" fill="#ece5d8" stroke="#d8cfbd" stroke-width="0.5"/><text x="847.00" y="674.00" class="cell">+0.000</text><rect x="930" y="658" width="114" height="32" rx="10" fill="#1d7f63" stroke="#d8cfbd" stroke-width="0.5"/><text x="987.00" y="674.00" class="cell">+1.000</text><rect x="1060" y="658" width="164" height="32" rx="10" fill="#d28b7f" stroke="#d8cfbd" stroke-width="0.5"/><text x="1142.00" y="674.00" class="cell">+388,903</text><rect x="1240" y="658" width="192" height="32" rx="10" fill="#d08579" stroke="#d8cfbd" stroke-width="0.5"/><text x="1336.00" y="674.00" class="cell">+45s</text><rect x="86" y="696" width="1460" height="44" fill="#faf5ec"/><line x1="86" y1="696" x2="1546" y2="696" stroke="#d8cfbd" stroke-width="2"/><text x="104" y="724" class="small">Surface / UI Reliability</text><text x="312" y="724" class="label">Dashboard Surface</text><rect x="630" y="702" width="134" height="32" rx="10" fill="#ece5d8" stroke="#d8cfbd" stroke-width="0.5"/><text x="697.00" y="718.00" class="cell">+0.000</text><rect x="780" y="702" width="134" height="32" rx="10" fill="#ece5d8" stroke="#d8cfbd" stroke-width="0.5"/><text x="847.00" y="718.00" class="cell">+0.000</text><rect x="930" y="702" width="114" height="32" rx="10" fill="#ece5d8" stroke="#d8cfbd" stroke-width="0.5"/><text x="987.00" y="718.00" class="cell">+0.000</text><rect x="1060" y="702" width="164" height="32" rx="10" fill="#dcada1" stroke="#d8cfbd" stroke-width="0.5"/><text x="1142.00" y="718.00" class="cell">+130,268</text><rect x="1240" y="702" width="192" height="32" rx="10" fill="#d49185" stroke="#d8cfbd" stroke-width="0.5"/><text x="1336.00" y="718.00" class="cell">+36s</text><rect x="86" y="740" width="1460" height="44" fill="#fffdfa"/><text x="104" y="768" class="small">Surface / UI Reliability</text><text x="312" y="768" class="label">Compass Brief Freshness</text><rect x="630" y="746" width="134" height="32" rx="10" fill="#519880" stroke="#d8cfbd" stroke-width="0.5"/><text x="697.00" y="762.00" class="cell">+0.400</text><rect x="780" y="746" width="134" height="32" rx="10" fill="#ece5d8" stroke="#d8cfbd" stroke-width="0.5"/><text x="847.00" y="762.00" class="cell">+0.000</text><rect x="930" y="746" width="114" height="32" rx="10" fill="#1d7f63" stroke="#d8cfbd" stroke-width="0.5"/><text x="987.00" y="762.00" class="cell">+1.000</text><rect x="1060" y="746" width="164" height="32" rx="10" fill="#1d7f63" stroke="#d8cfbd" stroke-width="0.5"/><text x="1142.00" y="762.00" class="cell">-1,180,976</text><rect x="1240" y="746" width="192" height="32" rx="10" fill="#1d7f63" stroke="#d8cfbd" stroke-width="0.5"/><text x="1336.00" y="762.00" class="cell">-2m 02s</text><rect x="86" y="784" width="1460" height="44" fill="#faf5ec"/><line x1="86" y1="784" x2="1546" y2="784" stroke="#d8cfbd" stroke-width="2"/><text x="104" y="812" class="small">Docs + Code Closeout</text><text x="312" y="812" class="label">Docs Code Closeout</text><rect x="630" y="790" width="134" height="32" rx="10" fill="#9ebfac" stroke="#d8cfbd" stroke-width="0.5"/><text x="697.00" y="806.00" class="cell">+0.100</text><rect x="780" y="790" width="134" height="32" rx="10" fill="#1d7f63" stroke="#d8cfbd" stroke-width="0.5"/><text x="847.00" y="806.00" class="cell">+0.500</text><rect x="930" y="790" width="114" height="32" rx="10" fill="#6ba58f" stroke="#d8cfbd" stroke-width="0.5"/><text x="987.00" y="806.00" class="cell">+0.500</text><rect x="1060" y="790" width="164" height="32" rx="10" fill="#e0bcaf" stroke="#d8cfbd" stroke-width="0.5"/><text x="1142.00" y="806.00" class="cell">+19,347</text><rect x="1240" y="790" width="192" height="32" rx="10" fill="#abc5b3" stroke="#d8cfbd" stroke-width="0.5"/><text x="1336.00" y="806.00" class="cell">-11s</text><rect x="86" y="828" width="1460" height="44" fill="#fffdfa"/><text x="104" y="856" class="small">Docs + Code Closeout</text><text x="312" y="856" class="label">Governed Surface Sync</text><rect x="630" y="834" width="134" height="32" rx="10" fill="#ece5d8" stroke="#d8cfbd" stroke-width="0.5"/><text x="697.00" y="850.00" class="cell">+0.000</text><rect x="780" y="834" width="134" height="32" rx="10" fill="#ece5d8" stroke="#d8cfbd" stroke-width="0.5"/><text x="847.00" y="850.00" class="cell">+0.000</text><rect x="930" y="834" width="114" height="32" rx="10" fill="#ece5d8" stroke="#d8cfbd" stroke-width="0.5"/><text x="987.00" y="850.00" class="cell">+0.000</text><rect x="1060" y="834" width="164" height="32" rx="10" fill="#b4c9b8" stroke="#d8cfbd" stroke-width="0.5"/><text x="1142.00" y="850.00" class="cell">-33,490</text><rect x="1240" y="834" width="192" height="32" rx="10" fill="#adc6b4" stroke="#d8cfbd" stroke-width="0.5"/><text x="1336.00" y="850.00" class="cell">-8.84s</text><rect x="86" y="872" width="1460" height="44" fill="#faf5ec"/><text x="104" y="900" class="small">Docs + Code Closeout</text><text x="312" y="900" class="label">Cross Surface Governance Sync</text><rect x="630" y="878" width="134" height="32" rx="10" fill="#4d967e" stroke="#d8cfbd" stroke-width="0.5"/><text x="697.00" y="894.00" class="cell">+0.416</text><rect x="780" y="878" width="134" height="32" rx="10" fill="#ece5d8" stroke="#d8cfbd" stroke-width="0.5"/><text x="847.00" y="894.00" class="cell">+0.000</text><rect x="930" y="878" width="114" height="32" rx="10" fill="#6ba58f" stroke="#d8cfbd" stroke-width="0.5"/><text x="987.00" y="894.00" class="cell">+0.500</text><rect x="1060" y="878" width="164" height="32" rx="10" fill="#cb7367" stroke="#d8cfbd" stroke-width="0.5"/><text x="1142.00" y="894.00" class="cell">+575,286</text><rect x="1240" y="878" width="192" height="32" rx="10" fill="#bb3b30" stroke="#d8cfbd" stroke-width="0.5"/><text x="1336.00" y="894.00" class="cell">+1m 43s</text><rect x="86" y="916" width="1460" height="44" fill="#fffdfa"/><line x1="86" y1="916" x2="1546" y2="916" stroke="#d8cfbd" stroke-width="2"/><text x="104" y="944" class="small">Governance / Release Integrity</text><text x="312" y="944" class="label">Component Governance</text><rect x="630" y="922" width="134" height="32" rx="10" fill="#62a18a" stroke="#d8cfbd" stroke-width="0.5"/><text x="697.00" y="938.00" class="cell">+0.334</text><rect x="780" y="922" width="134" height="32" rx="10" fill="#ece5d8" stroke="#d8cfbd" stroke-width="0.5"/><text x="847.00" y="938.00" class="cell">+0.000</text><rect x="930" y="922" width="114" height="32" rx="10" fill="#1d7f63" stroke="#d8cfbd" stroke-width="0.5"/><text x="987.00" y="938.00" class="cell">+1.000</text><rect x="1060" y="922" width="164" height="32" rx="10" fill="#aec7b5" stroke="#d8cfbd" stroke-width="0.5"/><text x="1142.00" y="938.00" class="cell">-76,496</text><rect x="1240" y="922" width="192" height="32" rx="10" fill="#93b9a6" stroke="#d8cfbd" stroke-width="0.5"/><text x="1336.00" y="938.00" class="cell">-29s</text><rect x="86" y="960" width="1460" height="44" fill="#faf5ec"/><text x="104" y="988" class="small">Governance / Release Integrity</text><text x="312" y="988" class="label">Release Publication</text><rect x="630" y="966" width="134" height="32" rx="10" fill="#449279" stroke="#d8cfbd" stroke-width="0.5"/><text x="697.00" y="982.00" class="cell">+0.450</text><rect x="780" y="966" width="134" height="32" rx="10" fill="#ece5d8" stroke="#d8cfbd" stroke-width="0.5"/><text x="847.00" y="982.00" class="cell">+0.000</text><rect x="930" y="966" width="114" height="32" rx="10" fill="#1d7f63" stroke="#d8cfbd" stroke-width="0.5"/><text x="987.00" y="982.00" class="cell">+1.000</text><rect x="1060" y="966" width="164" height="32" rx="10" fill="#b2c8b7" stroke="#d8cfbd" stroke-width="0.5"/><text x="1142.00" y="982.00" class="cell">-51,040</text><rect x="1240" y="966" width="192" height="32" rx="10" fill="#b1c8b7" stroke="#d8cfbd" stroke-width="0.5"/><text x="1336.00" y="982.00" class="cell">-5.81s</text><rect x="86" y="1004" width="1460" height="44" fill="#fffdfa"/><line x1="86" y1="1004" x2="1546" y2="1004" stroke="#d8cfbd" stroke-width="2"/><text x="104" y="1032" class="small">Architecture Review</text><text x="312" y="1032" class="label">Architecture</text><rect x="630" y="1010" width="134" height="32" rx="10" fill="#4a957d" stroke="#d8cfbd" stroke-width="0.5"/><text x="697.00" y="1026.00" class="cell">+0.425</text><rect x="780" y="1010" width="134" height="32" rx="10" fill="#ece5d8" stroke="#d8cfbd" stroke-width="0.5"/><text x="847.00" y="1026.00" class="cell">+0.000</text><rect x="930" y="1010" width="114" height="32" rx="10" fill="#449279" stroke="#d8cfbd" stroke-width="0.5"/><text x="987.00" y="1026.00" class="cell">+0.750</text><rect x="1060" y="1010" width="164" height="32" rx="10" fill="#dfb7aa" stroke="#d8cfbd" stroke-width="0.5"/><text x="1142.00" y="1026.00" class="cell">+57,057</text><rect x="1240" y="1010" width="192" height="32" rx="10" fill="#d8a094" stroke="#d8cfbd" stroke-width="0.5"/><text x="1336.00" y="1026.00" class="cell">+24s</text><rect x="86" y="1048" width="1460" height="44" fill="#faf5ec"/><line x1="86" y1="1048" x2="1546" y2="1048" stroke="#d8cfbd" stroke-width="2"/><text x="104" y="1076" class="small">Grounding / Orchestration Control</text><text x="312" y="1076" class="label">Broad Shared Scope</text><rect x="630" y="1054" width="134" height="32" rx="10" fill="#ece5d8" stroke="#d8cfbd" stroke-width="0.5"/><text x="697.00" y="1070.00" class="cell">+0.000</text><rect x="780" y="1054" width="134" height="32" rx="10" fill="#ece5d8" stroke="#d8cfbd" stroke-width="0.5"/><text x="847.00" y="1070.00" class="cell">+0.000</text><rect x="930" y="1054" width="114" height="32" rx="10" fill="#ece5d8" stroke="#d8cfbd" stroke-width="0.5"/><text x="987.00" y="1070.00" class="cell">+0.000</text><rect x="1060" y="1054" width="164" height="32" rx="10" fill="#b3c9b8" stroke="#d8cfbd" stroke-width="0.5"/><text x="1142.00" y="1070.00" class="cell">-40,528</text><rect x="1240" y="1054" width="192" height="32" rx="10" fill="#a6c2b0" stroke="#d8cfbd" stroke-width="0.5"/><text x="1336.00" y="1070.00" class="cell">-14s</text><rect x="86" y="1092" width="1460" height="44" fill="#fffdfa"/><text x="104" y="1120" class="small">Grounding / Orchestration Control</text><text x="312" y="1120" class="label">Exact Path Ambiguity</text><rect x="630" y="1098" width="134" height="32" rx="10" fill="#ece5d8" stroke="#d8cfbd" stroke-width="0.5"/><text x="697.00" y="1114.00" class="cell">+0.000</text><rect x="780" y="1098" width="134" height="32" rx="10" fill="#ece5d8" stroke="#d8cfbd" stroke-width="0.5"/><text x="847.00" y="1114.00" class="cell">+0.000</text><rect x="930" y="1098" width="114" height="32" rx="10" fill="#ece5d8" stroke="#d8cfbd" stroke-width="0.5"/><text x="987.00" y="1114.00" class="cell">+0.000</text><rect x="1060" y="1098" width="164" height="32" rx="10" fill="#adc6b4" stroke="#d8cfbd" stroke-width="0.5"/><text x="1142.00" y="1114.00" class="cell">-87,696</text><rect x="1240" y="1098" width="192" height="32" rx="10" fill="#8ab5a0" stroke="#d8cfbd" stroke-width="0.5"/><text x="1336.00" y="1114.00" class="cell">-37s</text><rect x="86" y="1136" width="1460" height="44" fill="#faf5ec"/><text x="104" y="1164" class="small">Grounding / Orchestration Control</text><text x="312" y="1164" class="label">Exact Anchor Recall</text><rect x="630" y="1142" width="134" height="32" rx="10" fill="#ece5d8" stroke="#d8cfbd" stroke-width="0.5"/><text x="697.00" y="1158.00" class="cell">+0.000</text><rect x="780" y="1142" width="134" height="32" rx="10" fill="#ece5d8" stroke="#d8cfbd" stroke-width="0.5"/><text x="847.00" y="1158.00" class="cell">+0.000</text><rect x="930" y="1142" width="114" height="32" rx="10" fill="#ece5d8" stroke="#d8cfbd" stroke-width="0.5"/><text x="987.00" y="1158.00" class="cell">+0.000</text><rect x="1060" y="1142" width="164" height="32" rx="10" fill="#e0bbae" stroke="#d8cfbd" stroke-width="0.5"/><text x="1142.00" y="1158.00" class="cell">+24,691</text><rect x="1240" y="1142" width="192" height="32" rx="10" fill="#dfb7ab" stroke="#d8cfbd" stroke-width="0.5"/><text x="1336.00" y="1158.00" class="cell">+5.30s</text><rect x="86" y="1180" width="1460" height="44" fill="#fffdfa"/><text x="104" y="1208" class="small">Grounding / Orchestration Control</text><text x="312" y="1208" class="label">Explicit Workstream</text><rect x="630" y="1186" width="134" height="32" rx="10" fill="#ece5d8" stroke="#d8cfbd" stroke-width="0.5"/><text x="697.00" y="1202.00" class="cell">+0.000</text><rect x="780" y="1186" width="134" height="32" rx="10" fill="#ece5d8" stroke="#d8cfbd" stroke-width="0.5"/><text x="847.00" y="1202.00" class="cell">+0.000</text><rect x="930" y="1186" width="114" height="32" rx="10" fill="#ece5d8" stroke="#d8cfbd" stroke-width="0.5"/><text x="987.00" y="1202.00" class="cell">+0.000</text><rect x="1060" y="1186" width="164" height="32" rx="10" fill="#b6cab9" stroke="#d8cfbd" stroke-width="0.5"/><text x="1142.00" y="1202.00" class="cell">-19,504</text><rect x="1240" y="1186" width="192" height="32" rx="10" fill="#afc7b5" stroke="#d8cfbd" stroke-width="0.5"/><text x="1336.00" y="1202.00" class="cell">-7.66s</text><rect x="86" y="1224" width="1460" height="44" fill="#faf5ec"/><text x="104" y="1252" class="small">Grounding / Orchestration Control</text><text x="312" y="1252" class="label">Retrieval Miss Recovery</text><rect x="630" y="1230" width="134" height="32" rx="10" fill="#ece5d8" stroke="#d8cfbd" stroke-width="0.5"/><text x="697.00" y="1246.00" class="cell">+0.000</text><rect x="780" y="1230" width="134" height="32" rx="10" fill="#ece5d8" stroke="#d8cfbd" stroke-width="0.5"/><text x="847.00" y="1246.00" class="cell">+0.000</text><rect x="930" y="1230" width="114" height="32" rx="10" fill="#ece5d8" stroke="#d8cfbd" stroke-width="0.5"/><text x="987.00" y="1246.00" class="cell">+0.000</text><rect x="1060" y="1230" width="164" height="32" rx="10" fill="#e0baae" stroke="#d8cfbd" stroke-width="0.5"/><text x="1142.00" y="1246.00" class="cell">+31,391</text><rect x="1240" y="1230" width="192" height="32" rx="10" fill="#dcada1" stroke="#d8cfbd" stroke-width="0.5"/><text x="1336.00" y="1246.00" class="cell">+13s</text><rect x="86" y="1268" width="1460" height="44" fill="#fffdfa"/><text x="104" y="1296" class="small">Grounding / Orchestration Control</text><text x="312" y="1296" class="label">Orchestration Feedback</text><rect x="630" y="1274" width="134" height="32" rx="10" fill="#ece5d8" stroke="#d8cfbd" stroke-width="0.5"/><text x="697.00" y="1290.00" class="cell">+0.000</text><rect x="780" y="1274" width="134" height="32" rx="10" fill="#ece5d8" stroke="#d8cfbd" stroke-width="0.5"/><text x="847.00" y="1290.00" class="cell">+0.000</text><rect x="930" y="1274" width="114" height="32" rx="10" fill="#ece5d8" stroke="#d8cfbd" stroke-width="0.5"/><text x="987.00" y="1290.00" class="cell">+0.000</text><rect x="1060" y="1274" width="164" height="32" rx="10" fill="#b6cab9" stroke="#d8cfbd" stroke-width="0.5"/><text x="1142.00" y="1290.00" class="cell">-19,437</text><rect x="1240" y="1274" width="192" height="32" rx="10" fill="#e0bdb0" stroke="#d8cfbd" stroke-width="0.5"/><text x="1336.00" y="1290.00" class="cell">+1.24s</text><rect x="86" y="1312" width="1460" height="44" fill="#faf5ec"/><text x="104" y="1340" class="small">Grounding / Orchestration Control</text><text x="312" y="1340" class="label">Orchestration Intelligence</text><rect x="630" y="1318" width="134" height="32" rx="10" fill="#ece5d8" stroke="#d8cfbd" stroke-width="0.5"/><text x="697.00" y="1334.00" class="cell">+0.000</text><rect x="780" y="1318" width="134" height="32" rx="10" fill="#ece5d8" stroke="#d8cfbd" stroke-width="0.5"/><text x="847.00" y="1334.00" class="cell">+0.000</text><rect x="930" y="1318" width="114" height="32" rx="10" fill="#ece5d8" stroke="#d8cfbd" stroke-width="0.5"/><text x="987.00" y="1334.00" class="cell">+0.000</text><rect x="1060" y="1318" width="164" height="32" rx="10" fill="#dfb8ab" stroke="#d8cfbd" stroke-width="0.5"/><text x="1142.00" y="1334.00" class="cell">+49,295</text><rect x="1240" y="1318" width="192" height="32" rx="10" fill="#daa79a" stroke="#d8cfbd" stroke-width="0.5"/><text x="1336.00" y="1334.00" class="cell">+18s</text><text x="1528" y="1390" class="small" text-anchor="end">Green: Odylith better | Red: baseline better | Ordered by developer archetype</text><text x="86" y="1390" class="small">Report 52aa3f76538cf12f | 2026-04-05T22:51:40Z | 37 scenarios | Live</text><text x="86" y="1406" class="small">Benchmark | conservative_multi_profile (warm, cold)</text></svg>