<svg xmlns="http://www.w3.org/2000/svg" width="1600" height="1416" viewBox="0 0 1600 1416" role="img" aria-label="Odylith benchmark frontier"><title>Odylith benchmark frontier</title><rect x="0" y="0" width="1600" height="1416" rx="24" fill="#f6f1e7"/>
    <style>
      text { fill: #17202a; font-family: ui-sans-serif, system-ui, -apple-system, BlinkMacSystemFont, "Segoe UI", sans-serif; }
      .title { font-size: 30px; font-weight: 700; }
      .subtitle { font-size: 15px; fill: #5f6b76; }
      .axis { font-size: 14px; fill: #5f6b76; }
      .label { font-size: 13px; fill: #5f6b76; }
      .small { font-size: 12px; fill: #5f6b76; }
      .chip { font-size: 12px; font-weight: 700; }
      .value { font-size: 16px; font-weight: 700; }
      .cell { font-size: 12px; font-weight: 700; text-anchor: middle; dominant-baseline: middle; }
    </style>
    <rect x="44" y="40" width="1512" height="1336" rx="28" fill="#fffdfa" stroke="#d8cfbd" stroke-width="1.5"/><text x="86" y="86" class="title">Live Benchmark: time to valid outcome vs live session input</text><text x="86" y="112" class="subtitle">The main field is zoomed to the dense scenario cluster so long-tail cases do not flatten the rest. Left and down</text><text x="86" y="130" class="subtitle">is better for live session input and time to valid outcome.</text><text x="86" y="156" class="small">Static chart: Focus window | 33 of 37 scenarios in frame</text><text x="420" y="156" class="small" fill="#b42318">| 4 long-tail outliers called out separately</text><rect x="86" y="190" width="944" height="1046" rx="24" fill="#faf7ef" stroke="#d8cfbd" stroke-width="1"/><line x1="86.00" y1="190" x2="86.00" y2="1236" stroke="#d8cfbd" stroke-width="1" opacity="0.8"/><text x="86.00" y="1262" class="axis" text-anchor="middle">0</text><line x1="220.86" y1="190" x2="220.86" y2="1236" stroke="#d8cfbd" stroke-width="1" opacity="0.8"/><text x="220.86" y="1262" class="axis" text-anchor="middle">285.7k</text><line x1="355.71" y1="190" x2="355.71" y2="1236" stroke="#d8cfbd" stroke-width="1" opacity="0.8"/><text x="355.71" y="1262" class="axis" text-anchor="middle">571.4k</text><line x1="490.57" y1="190" x2="490.57" y2="1236" stroke="#d8cfbd" stroke-width="1" opacity="0.8"/><text x="490.57" y="1262" class="axis" text-anchor="middle">857.1k</text><line x1="625.43" y1="190" x2="625.43" y2="1236" stroke="#d8cfbd" stroke-width="1" opacity="0.8"/><text x="625.43" y="1262" class="axis" text-anchor="middle">1.14M</text><line x1="760.29" y1="190" x2="760.29" y2="1236" stroke="#d8cfbd" stroke-width="1" opacity="0.8"/><text x="760.29" y="1262" class="axis" text-anchor="middle">1.43M</text><line x1="895.14" y1="190" x2="895.14" y2="1236" stroke="#d8cfbd" stroke-width="1" opacity="0.8"/><text x="895.14" y="1262" class="axis" text-anchor="middle">1.71M</text><line x1="1030.00" y1="190" x2="1030.00" y2="1236" stroke="#d8cfbd" stroke-width="1" opacity="0.8"/><text x="1030.00" y="1262" class="axis" text-anchor="middle">2M</text><line x1="86" y1="1236.00" x2="1030" y2="1236.00" stroke="#d8cfbd" stroke-width="1" opacity="0.8"/><text x="68" y="1240.00" class="axis" text-anchor="end">0s</text><line x1="86" y1="1061.67" x2="1030" y2="1061.67" stroke="#d8cfbd" stroke-width="1" opacity="0.8"/><text x="68" y="1065.67" class="axis" text-anchor="end">42s</text><line x1="86" y1="887.33" x2="1030" y2="887.33" stroke="#d8cfbd" stroke-width="1" opacity="0.8"/><text x="68" y="891.33" class="axis" text-anchor="end">1m 23s</text><line x1="86" y1="713.00" x2="1030" y2="713.00" stroke="#d8cfbd" stroke-width="1" opacity="0.8"/><text x="68" y="717.00" class="axis" text-anchor="end">2m 05s</text><line x1="86" y1="538.67" x2="1030" y2="538.67" stroke="#d8cfbd" stroke-width="1" opacity="0.8"/><text x="68" y="542.67" class="axis" text-anchor="end">2m 47s</text><line x1="86" y1="364.33" x2="1030" y2="364.33" stroke="#d8cfbd" stroke-width="1" opacity="0.8"/><text x="68" y="368.33" class="axis" text-anchor="end">3m 28s</text><line x1="86" y1="190.00" x2="1030" y2="190.00" stroke="#d8cfbd" stroke-width="1" opacity="0.8"/><text x="68" y="194.00" class="axis" text-anchor="end">4m 10s</text><line x1="86" y1="1236" x2="1030" y2="1236" stroke="#17202a" stroke-width="2"/><line x1="86" y1="190" x2="86" y2="1236" stroke="#17202a" stroke-width="2"/><text x="558.00" y="1290" class="label" text-anchor="middle">Live session input tokens</text><text x="28" y="713.00" class="label" text-anchor="middle" transform="rotate(-90 28 713.00)">Time to valid outcome</text><text x="86" y="1314" class="small">Main field caps at 2M live session input tokens and 4m 10s to keep the dense cluster legible.</text><line x1="163.81" y1="190" x2="163.81" y2="1236" stroke="#b64035" stroke-width="1.8" stroke-dasharray="7 6" opacity="0.8"/><line x1="139.00" y1="190" x2="139.00" y2="1236" stroke="#007f8c" stroke-width="1.8" stroke-dasharray="7 6" opacity="0.8"/><line x1="86" y1="953.63" x2="1030" y2="953.63" stroke="#b64035" stroke-width="1.8" stroke-dasharray="7 6" opacity="0.8"/><line x1="86" y1="1005.63" x2="1030" y2="1005.63" stroke="#007f8c" stroke-width="1.8" stroke-dasharray="7 6" opacity="0.8"/><line x1="156.64" y1="1048.04" x2="151.29" y2="991.58" stroke="#b7791f" stroke-width="2.4" opacity="0.68"/><circle cx="156.64" cy="1048.04" r="5.3" fill="#b64035" stroke="#fffdfa" stroke-width="1.4"/><polygon points="151.29,985.38 157.49,991.58 151.29,997.78 145.09,991.58" fill="#007f8c" stroke="#fffdfa" stroke-width="1.4"/><line x1="86.00" y1="1105.51" x2="86.00" y2="1100.86" stroke="#b7791f" stroke-width="2.4" opacity="0.68"/><circle cx="86.00" cy="1105.51" r="5.3" fill="#b64035" stroke="#fffdfa" stroke-width="1.4"/><polygon points="86.00,1094.66 92.20,1100.86 86.00,1107.06 79.80,1100.86" fill="#007f8c" stroke="#fffdfa" stroke-width="1.4"/><line x1="132.03" y1="1002.28" x2="108.14" y2="1064.81" stroke="#1d7f63" stroke-width="2.4" opacity="0.68"/><circle cx="132.03" cy="1002.28" r="5.3" fill="#b64035" stroke="#fffdfa" stroke-width="1.4"/><polygon points="108.14,1058.61 114.34,1064.81 108.14,1071.01 101.94,1064.81" fill="#007f8c" stroke="#fffdfa" stroke-width="1.4"/><line x1="257.37" y1="843.15" x2="100.45" y2="1070.14" stroke="#1d7f63" stroke-width="2.4" opacity="0.68"/><circle cx="257.37" cy="843.15" r="5.3" fill="#b64035" stroke="#fffdfa" stroke-width="1.4"/><polygon points="100.45,1063.94 106.65,1070.14 100.45,1076.34 94.25,1070.14" fill="#007f8c" stroke="#fffdfa" stroke-width="1.4"/><line x1="442.17" y1="802.02" x2="136.74" y2="1022.70" stroke="#1d7f63" stroke-width="2.4" opacity="0.68"/><circle cx="442.17" cy="802.02" r="5.3" fill="#b64035" stroke="#fffdfa" stroke-width="1.4"/><polygon points="136.74,1016.50 142.94,1022.70 136.74,1028.90 130.54,1022.70" fill="#007f8c" stroke="#fffdfa" stroke-width="1.4"/><line x1="255.51" y1="708.40" x2="137.29" y2="1002.65" stroke="#1d7f63" stroke-width="2.4" opacity="0.68"/><circle cx="255.51" cy="708.40" r="5.3" fill="#b64035" stroke="#fffdfa" stroke-width="1.4"/><polygon points="137.29,996.45 143.49,1002.65 137.29,1008.85 131.09,1002.65" fill="#007f8c" stroke="#fffdfa" stroke-width="1.4"/><line x1="207.24" y1="821.28" x2="253.24" y2="769.71" stroke="#b42318" stroke-width="2.4" opacity="0.68"/><circle cx="207.24" cy="821.28" r="5.3" fill="#b64035" stroke="#fffdfa" stroke-width="1.4"/><polygon points="253.24,763.51 259.44,769.71 253.24,775.91 247.04,769.71" fill="#007f8c" stroke="#fffdfa" stroke-width="1.4"/><line x1="265.97" y1="759.11" x2="303.01" y2="790.87" stroke="#b7791f" stroke-width="2.4" opacity="0.68"/><circle cx="265.97" cy="759.11" r="5.3" fill="#b64035" stroke="#fffdfa" stroke-width="1.4"/><polygon points="303.01,784.67 309.21,790.87 303.01,797.07 296.81,790.87" fill="#007f8c" stroke="#fffdfa" stroke-width="1.4"/><line x1="427.33" y1="584.92" x2="485.42" y2="646.35" stroke="#b7791f" stroke-width="2.4" opacity="0.68"/><circle cx="427.33" cy="584.92" r="5.3" fill="#b64035" stroke="#fffdfa" stroke-width="1.4"/><polygon points="485.42,640.15 491.62,646.35 485.42,652.55 479.22,646.35" fill="#007f8c" stroke="#fffdfa" stroke-width="1.4"/><line x1="135.62" y1="1022.12" x2="119.81" y2="1059.11" stroke="#1d7f63" stroke-width="2.4" opacity="0.68"/><circle cx="135.62" cy="1022.12" r="5.3" fill="#b64035" stroke="#fffdfa" stroke-width="1.4"/><polygon points="119.81,1052.91 126.01,1059.11 119.81,1065.31 113.61,1059.11" fill="#007f8c" stroke="#fffdfa" stroke-width="1.4"/><line x1="687.72" y1="576.53" x2="130.30" y2="1087.81" stroke="#1d7f63" stroke-width="2.4" opacity="0.68"/><circle cx="687.72" cy="576.53" r="5.3" fill="#b64035" stroke="#fffdfa" stroke-width="1.4"/><polygon points="130.30,1081.61 136.50,1087.81 130.30,1094.01 124.10,1087.81" fill="#007f8c" stroke="#fffdfa" stroke-width="1.4"/><line x1="262.40" y1="858.15" x2="142.41" y2="1073.91" stroke="#1d7f63" stroke-width="2.4" opacity="0.68"/><circle cx="262.40" cy="858.15" r="5.3" fill="#b64035" stroke="#fffdfa" stroke-width="1.4"/><polygon points="142.41,1067.71 148.61,1073.91 142.41,1080.11 136.21,1073.91" fill="#007f8c" stroke="#fffdfa" stroke-width="1.4"/><line x1="143.04" y1="986.54" x2="125.32" y2="1022.24" stroke="#1d7f63" stroke-width="2.4" opacity="0.68"/><circle cx="143.04" cy="986.54" r="5.3" fill="#b64035" stroke="#fffdfa" stroke-width="1.4"/><polygon points="125.32,1016.04 131.52,1022.24 125.32,1028.44 119.12,1022.24" fill="#007f8c" stroke="#fffdfa" stroke-width="1.4"/><line x1="441.74" y1="649.01" x2="716.66" y2="423.45" stroke="#b42318" stroke-width="2.4" opacity="0.68"/><circle cx="441.74" cy="649.01" r="5.3" fill="#b64035" stroke="#fffdfa" stroke-width="1.4"/><polygon points="716.66,417.25 722.86,423.45 716.66,429.65 710.46,423.45" fill="#007f8c" stroke="#fffdfa" stroke-width="1.4"/><line x1="109.94" y1="1125.79" x2="121.59" y2="1103.62" stroke="#b42318" stroke-width="2.4" opacity="0.68"/><circle cx="109.94" cy="1125.79" r="5.3" fill="#b64035" stroke="#fffdfa" stroke-width="1.4"/><polygon points="121.59,1097.42 127.79,1103.62 121.59,1109.82 115.39,1103.62" fill="#007f8c" stroke="#fffdfa" stroke-width="1.4"/><line x1="409.58" y1="684.11" x2="527.11" y2="428.13" stroke="#b42318" stroke-width="2.4" opacity="0.68"/><circle cx="409.58" cy="684.11" r="5.3" fill="#b64035" stroke="#fffdfa" stroke-width="1.4"/><polygon points="527.11,421.93 533.31,428.13 527.11,434.33 520.91,428.13" fill="#007f8c" stroke="#fffdfa" stroke-width="1.4"/><line x1="105.53" y1="1115.34" x2="106.50" y2="1080.90" stroke="#b42318" stroke-width="2.4" opacity="0.68"/><circle cx="105.53" cy="1115.34" r="5.3" fill="#b64035" stroke="#fffdfa" stroke-width="1.4"/><polygon points="106.50,1074.70 112.70,1080.90 106.50,1087.10 100.30,1080.90" fill="#007f8c" stroke="#fffdfa" stroke-width="1.4"/><line x1="148.17" y1="962.37" x2="139.00" y2="957.16" stroke="#b7791f" stroke-width="2.4" opacity="0.68"/><circle cx="148.17" cy="962.37" r="5.3" fill="#b64035" stroke="#fffdfa" stroke-width="1.4"/><polygon points="139.00,950.96 145.20,957.16 139.00,963.36 132.80,957.16" fill="#007f8c" stroke="#fffdfa" stroke-width="1.4"/><line x1="370.99" y1="724.32" x2="554.55" y2="535.83" stroke="#b42318" stroke-width="2.4" opacity="0.68"/><circle cx="370.99" cy="724.32" r="5.3" fill="#b64035" stroke="#fffdfa" stroke-width="1.4"/><polygon points="554.55,529.63 560.75,535.83 554.55,542.03 548.35,535.83" fill="#007f8c" stroke="#fffdfa" stroke-width="1.4"/><line x1="187.46" y1="902.17" x2="144.63" y2="1007.27" stroke="#1d7f63" stroke-width="2.4" opacity="0.68"/><circle cx="187.46" cy="902.17" r="5.3" fill="#b64035" stroke="#fffdfa" stroke-width="1.4"/><polygon points="144.63,1001.07 150.83,1007.27 144.63,1013.47 138.43,1007.27" fill="#007f8c" stroke="#fffdfa" stroke-width="1.4"/><line x1="109.17" y1="1112.33" x2="95.08" y2="1170.10" stroke="#1d7f63" stroke-width="2.4" opacity="0.68"/><circle cx="109.17" cy="1112.33" r="5.3" fill="#b64035" stroke="#fffdfa" stroke-width="1.4"/><polygon points="95.08,1163.90 101.28,1170.10 95.08,1176.30 88.88,1170.10" fill="#007f8c" stroke="#fffdfa" stroke-width="1.4"/><line x1="112.04" y1="1076.58" x2="97.67" y2="1134.67" stroke="#1d7f63" stroke-width="2.4" opacity="0.68"/><circle cx="112.04" cy="1076.58" r="5.3" fill="#b64035" stroke="#fffdfa" stroke-width="1.4"/><polygon points="97.67,1128.47 103.87,1134.67 97.67,1140.87 91.47,1134.67" fill="#007f8c" stroke="#fffdfa" stroke-width="1.4"/><line x1="163.81" y1="903.34" x2="95.11" y2="1151.63" stroke="#1d7f63" stroke-width="2.4" opacity="0.68"/><circle cx="163.81" cy="903.34" r="5.3" fill="#b64035" stroke="#fffdfa" stroke-width="1.4"/><polygon points="95.11,1145.43 101.31,1151.63 95.11,1157.83 88.91,1151.63" fill="#007f8c" stroke="#fffdfa" stroke-width="1.4"/><line x1="182.22" y1="977.01" x2="123.46" y2="1005.63" stroke="#1d7f63" stroke-width="2.4" opacity="0.68"/><circle cx="182.22" cy="977.01" r="5.3" fill="#b64035" stroke="#fffdfa" stroke-width="1.4"/><polygon points="123.46,999.43 129.66,1005.63 123.46,1011.83 117.26,1005.63" fill="#007f8c" stroke="#fffdfa" stroke-width="1.4"/><line x1="120.34" y1="1083.51" x2="111.13" y2="1115.54" stroke="#1d7f63" stroke-width="2.4" opacity="0.68"/><circle cx="120.34" cy="1083.51" r="5.3" fill="#b64035" stroke="#fffdfa" stroke-width="1.4"/><polygon points="111.13,1109.34 117.33,1115.54 111.13,1121.74 104.93,1115.54" fill="#007f8c" stroke="#fffdfa" stroke-width="1.4"/><line x1="108.09" y1="1107.01" x2="122.91" y2="1050.76" stroke="#b42318" stroke-width="2.4" opacity="0.68"/><circle cx="108.09" cy="1107.01" r="5.3" fill="#b64035" stroke="#fffdfa" stroke-width="1.4"/><polygon points="122.91,1044.56 129.11,1050.76 122.91,1056.96 116.71,1050.76" fill="#007f8c" stroke="#fffdfa" stroke-width="1.4"/><line x1="151.76" y1="953.63" x2="167.94" y2="921.60" stroke="#b42318" stroke-width="2.4" opacity="0.68"/><circle cx="151.76" cy="953.63" r="5.3" fill="#b64035" stroke="#fffdfa" stroke-width="1.4"/><polygon points="167.94,915.40 174.14,921.60 167.94,927.80 161.74,921.60" fill="#007f8c" stroke="#fffdfa" stroke-width="1.4"/><line x1="123.74" y1="1070.08" x2="161.43" y2="903.96" stroke="#b42318" stroke-width="2.4" opacity="0.68"/><circle cx="123.74" cy="1070.08" r="5.3" fill="#b64035" stroke="#fffdfa" stroke-width="1.4"/><polygon points="161.43,897.76 167.63,903.96 161.43,910.16 155.23,903.96" fill="#007f8c" stroke="#fffdfa" stroke-width="1.4"/><line x1="94.78" y1="1159.87" x2="95.09" y2="1166.42" stroke="#b7791f" stroke-width="2.4" opacity="0.68"/><circle cx="94.78" cy="1159.87" r="5.3" fill="#b64035" stroke="#fffdfa" stroke-width="1.4"/><polygon points="95.09,1160.22 101.29,1166.42 95.09,1172.62 88.89,1166.42" fill="#007f8c" stroke="#fffdfa" stroke-width="1.4"/><line x1="180.95" y1="853.47" x2="215.20" y2="761.74" stroke="#b42318" stroke-width="2.4" opacity="0.68"/><circle cx="180.95" cy="853.47" r="5.3" fill="#b64035" stroke="#fffdfa" stroke-width="1.4"/><polygon points="215.20,755.54 221.40,761.74 215.20,767.94 209.00,761.74" fill="#007f8c" stroke="#fffdfa" stroke-width="1.4"/><line x1="102.63" y1="1113.59" x2="164.12" y2="964.46" stroke="#b42318" stroke-width="2.4" opacity="0.68"/><circle cx="102.63" cy="1113.59" r="5.3" fill="#b64035" stroke="#fffdfa" stroke-width="1.4"/><polygon points="164.12,958.26 170.32,964.46 164.12,970.66 157.92,964.46" fill="#007f8c" stroke="#fffdfa" stroke-width="1.4"/><line x1="120.69" y1="1038.98" x2="101.92" y2="1095.46" stroke="#1d7f63" stroke-width="2.4" opacity="0.68"/><circle cx="120.69" cy="1038.98" r="5.3" fill="#b64035" stroke="#fffdfa" stroke-width="1.4"/><polygon points="101.92,1089.26 108.12,1095.46 101.92,1101.66 95.72,1095.46" fill="#007f8c" stroke="#fffdfa" stroke-width="1.4"/><line x1="119.91" y1="1004.47" x2="143.18" y2="927.43" stroke="#b42318" stroke-width="2.4" opacity="0.68"/><circle cx="119.91" cy="1004.47" r="5.3" fill="#b64035" stroke="#fffdfa" stroke-width="1.4"/><polygon points="143.18,921.23 149.38,927.43 143.18,933.63 136.98,927.43" fill="#007f8c" stroke="#fffdfa" stroke-width="1.4"/><rect x="1060" y="190" width="436" height="230" rx="22" fill="#f6f1e7" stroke="#d8cfbd" stroke-width="1"/><text x="1088" y="224" class="value">Median tradeoff</text><line x1="1084" y1="244" x2="1472" y2="244" stroke="#d8cfbd" stroke-width="1"/><text x="1088" y="274" class="small">Live session input</text><text x="1088" y="312" class="value" fill="#1d7f63">-32%</text><text x="1464" y="312" class="small" text-anchor="end">off 164.8k -&gt; on 112.3k</text><line x1="1084" y1="330" x2="1472" y2="330" stroke="#d8cfbd" stroke-width="1"/><text x="1088" y="360" class="small">Time to valid outcome</text><text x="1088" y="398" class="value" fill="#1d7f63">-18% (-12s)</text><text x="1464" y="398" class="small" text-anchor="end">off 1m 07s -&gt; on 55s</text><rect x="1060" y="438" width="436" height="176" rx="22" fill="#f6f1e7" stroke="#d8cfbd" stroke-width="1"/><text x="1088" y="468" class="value">How to read</text><text x="1088" y="496" class="label">Each line links the same benchmark</text><text x="1088" y="516" class="label">scenario in both modes.</text><text x="1088" y="536" class="label">Read left/down as better.</text><text x="1088" y="556" class="label">The main field caps at 2M tokens and</text><text x="1088" y="576" class="label">4m 10s.</text><rect x="1060" y="632" width="436" height="228" rx="22" fill="#f6f1e7" stroke="#d8cfbd" stroke-width="1"/><text x="1088" y="662" class="value">Long-tail spotlight</text><text x="1088" y="686" class="label">4 scenarios sit outside the focus</text><text x="1088" y="706" class="label">window.</text><rect x="1084" y="722" width="388" height="34" rx="10" fill="#fffdfa" stroke="#d8cfbd" stroke-width="1"/><text x="1098" y="742" class="label">Tooling dashboard onboard...</text><text x="1456" y="742" class="small" text-anchor="end">peak 4m 39s | 1.76M tok</text><rect x="1084" y="756" width="388" height="34" rx="10" fill="#fffdfa" stroke="#d8cfbd" stroke-width="1"/><text x="1098" y="776" class="label">Shell and Compass browser...</text><text x="1456" y="776" class="small" text-anchor="end">peak 3m 52s | 2.15M tok</text><rect x="1084" y="790" width="388" height="34" rx="10" fill="#fffdfa" stroke="#d8cfbd" stroke-width="1"/><text x="1098" y="810" class="label">Benchmark corpus expansio...</text><text x="1456" y="810" class="small" text-anchor="end">peak 4m 27s | 830k tok</text><rect x="1060" y="878" width="436" height="328" rx="22" fill="#f6f1e7" stroke="#d8cfbd" stroke-width="1"/><text x="1088" y="910" class="value">Marks and signals</text><circle cx="1098" cy="934" r="5.5" fill="#b64035"/><text x="1116" y="939" class="small">odylith_off / raw Codex CLI</text><polygon points="1098.00,951.80 1104.20,958.00 1098.00,964.20 1091.80,958.00" fill="#007f8c"/><text x="1116" y="963" class="small">Odylith on</text><line x1="1092" y1="982" x2="1110" y2="982" stroke="#17202a" stroke-width="2.3"/><text x="1116" y="987" class="small">One connecting line = one</text><text x="1116" y="1005" class="small">scenario across both modes</text><line x1="1092" y1="1024" x2="1110" y2="1024" stroke="#1d7f63" stroke-width="2.5"/><text x="1116" y="1029" class="small">Odylith on wins on both time to</text><text x="1116" y="1047" class="small">valid outcome and live session</text><text x="1116" y="1065" class="small">input</text><line x1="1092" y1="1084" x2="1110" y2="1084" stroke="#b7791f" stroke-width="2.5"/><text x="1116" y="1089" class="small">Split tradeoff: one improves</text><text x="1116" y="1107" class="small">while the other worsens</text><line x1="1092" y1="1126" x2="1110" y2="1126" stroke="#b42318" stroke-width="2.5"/><text x="1116" y="1131" class="small">odylith_off / raw Codex CLI wins</text><text x="1116" y="1149" class="small">on both time to valid outcome</text><text x="1116" y="1167" class="small">and live session input</text><text x="1088" y="1248" class="small">Report 52aa3f76538cf12f |</text><text x="1088" y="1264" class="small">2026-04-05T22:51:40Z | 37 scenarios | Live</text><text x="1088" y="1280" class="small">Benchmark | conservative_multi_profile</text><text x="1088" y="1296" class="small">(warm, cold)</text><text x="1088" y="1312" class="small">Visual pair: odylith_on vs raw_agent_baseline</text><text x="1088" y="1328" class="small">Source: latest-proof.v1.json</text></svg>